<svg width="558" height="536" viewBox="0 0 558 536" fill="none" xmlns="http://www.w3.org/2000/svg">
<path d="M558 409.931H0V410.199H558V409.931Z" fill="#EBEBEB"/>
<path d="M502.089 427.186H465.125V427.454H502.089V427.186Z" fill="#EBEBEB"/>
<path d="M369.642 430.095H359.94V430.363H369.642V430.095Z" fill="#EBEBEB"/>
<path d="M464.008 417.231H442.59V417.499H464.008V417.231Z" fill="#EBEBEB"/>
<path d="M106.747 419.032H58.5439V419.3H106.747V419.032Z" fill="#EBEBEB"/>
<path d="M123.752 419.032H116.685V419.3H123.752V419.032Z" fill="#EBEBEB"/>
<path d="M251.264 423.559H146.722V423.827H251.264V423.559Z" fill="#EBEBEB"/>
<path d="M264.507 362.122H49.0088C45.4967 362.122 42.6387 359.376 42.6387 356.003V65.0277C42.6387 61.6541 45.4967 58.9087 49.0088 58.9087H264.507C268.018 58.9087 270.876 61.6541 270.876 65.0277V356.003C270.876 359.376 268.018 362.122 264.507 362.122ZM49.0088 59.1778C45.6496 59.1778 42.9177 61.802 42.9177 65.0287V356.004C42.9177 359.231 45.6496 361.855 49.0088 361.855H264.507C267.865 361.855 270.597 359.231 270.597 356.004V65.0277C270.597 61.802 267.865 59.1767 264.507 59.1767L49.0088 59.1778Z" fill="#EBEBEB"/>
<path d="M505.894 362.122H290.396C286.884 362.122 284.027 359.376 284.027 356.003V65.0277C284.027 61.6541 286.885 58.9087 290.396 58.9087H505.894C509.407 58.9087 512.264 61.6541 512.264 65.0277V356.003C512.265 359.376 509.407 362.122 505.894 362.122ZM290.396 59.1778C287.038 59.1778 284.306 61.802 284.306 65.0287V356.004C284.306 359.231 287.038 361.855 290.396 361.855H505.894C509.253 361.855 511.985 359.231 511.985 356.004V65.0277C511.985 61.802 509.253 59.1767 505.894 59.1767L290.396 59.1778Z" fill="#EBEBEB"/>
<path d="M497.089 125.613H226.703V375.967H497.089V125.613Z" fill="#E0E0E0"/>
<path d="M497.089 130.159H231.042V371.6H497.089V130.159Z" fill="#F5F5F5"/>
<path d="M233.005 313.126V240.506H240.859V230.913L258.534 222.973V213.155H261.479V240.506H264.424V313.126H268.351V275.401H277.187V255.595H280.134V313.126H287.006V291.434H291.915V285.775H302.716V265.97H308.607V252.766H315.48V232.961H318.425V252.766H325.298V265.97H331.19V285.775H341.989V291.434H346.898V313.126H352.79V285.775H363.589V225.415H366.536V218.814H390.1V225.415H395.009V268.799H414.645V273.515H421.519V276.345H414.645V293.321H435.264V236.733H439.192V225.415H449.01V182.031H451.955V225.415H458.829V236.733H497.087V371.601H231.042V313.126H233.005Z" fill="#E6E6E6"/>
<path d="M476.645 239.69H473.862V242.362H476.645V239.69Z" fill="#F0F0F0"/>
<path d="M476.645 244.17H473.862V246.842H476.645V244.17Z" fill="#F0F0F0"/>
<path d="M476.645 262.089H473.862V264.762H476.645V262.089Z" fill="#F0F0F0"/>
<path d="M476.645 266.569H473.862V269.242H476.645V266.569Z" fill="#F0F0F0"/>
<path d="M476.645 271.049H473.862V273.722H476.645V271.049Z" fill="#F0F0F0"/>
<path d="M476.645 284.489H473.862V287.161H476.645V284.489Z" fill="#F0F0F0"/>
<path d="M476.645 288.969H473.862V291.641H476.645V288.969Z" fill="#F0F0F0"/>
<path d="M472.227 257.609H469.444V260.282H472.227V257.609Z" fill="#F0F0F0"/>
<path d="M472.227 262.089H469.444V264.762H472.227V262.089Z" fill="#F0F0F0"/>
<path d="M472.227 266.569H469.444V269.242H472.227V266.569Z" fill="#F0F0F0"/>
<path d="M472.227 271.049H469.444V273.722H472.227V271.049Z" fill="#F0F0F0"/>
<path d="M472.227 275.529H469.444V278.201H472.227V275.529Z" fill="#F0F0F0"/>
<path d="M472.227 284.489H469.444V287.161H472.227V284.489Z" fill="#F0F0F0"/>
<path d="M472.227 288.969H469.444V291.641H472.227V288.969Z" fill="#F0F0F0"/>
<path d="M467.808 239.69H465.025V242.362H467.808V239.69Z" fill="#F0F0F0"/>
<path d="M467.808 244.17H465.025V246.842H467.808V244.17Z" fill="#F0F0F0"/>
<path d="M467.808 248.65H465.025V251.322H467.808V248.65Z" fill="#F0F0F0"/>
<path d="M467.808 253.129H465.025V255.802H467.808V253.129Z" fill="#F0F0F0"/>
<path d="M467.808 257.609H465.025V260.282H467.808V257.609Z" fill="#F0F0F0"/>
<path d="M467.808 262.089H465.025V264.762H467.808V262.089Z" fill="#F0F0F0"/>
<path d="M467.808 266.569H465.025V269.242H467.808V266.569Z" fill="#F0F0F0"/>
<path d="M467.808 271.049H465.025V273.722H467.808V271.049Z" fill="#F0F0F0"/>
<path d="M467.808 275.529H465.025V278.201H467.808V275.529Z" fill="#F0F0F0"/>
<path d="M467.808 280.009H465.025V282.681H467.808V280.009Z" fill="#F0F0F0"/>
<path d="M467.808 288.969H465.025V291.641H467.808V288.969Z" fill="#F0F0F0"/>
<path d="M463.39 239.69H460.607V242.362H463.39V239.69Z" fill="#F0F0F0"/>
<path d="M463.39 244.17H460.607V246.842H463.39V244.17Z" fill="#F0F0F0"/>
<path d="M463.39 248.65H460.607V251.322H463.39V248.65Z" fill="#F0F0F0"/>
<path d="M463.39 253.129H460.607V255.802H463.39V253.129Z" fill="#F0F0F0"/>
<path d="M463.39 257.609H460.607V260.282H463.39V257.609Z" fill="#F0F0F0"/>
<path d="M463.39 262.089H460.607V264.762H463.39V262.089Z" fill="#F0F0F0"/>
<path d="M463.39 266.569H460.607V269.242H463.39V266.569Z" fill="#F0F0F0"/>
<path d="M463.39 306.888H460.607V309.561H463.39V306.888Z" fill="#F0F0F0"/>
<path d="M458.972 239.69H456.189V242.362H458.972V239.69Z" fill="#F0F0F0"/>
<path d="M458.972 244.17H456.189V246.842H458.972V244.17Z" fill="#F0F0F0"/>
<path d="M458.972 248.65H456.189V251.322H458.972V248.65Z" fill="#F0F0F0"/>
<path d="M458.972 253.129H456.189V255.802H458.972V253.129Z" fill="#F0F0F0"/>
<path d="M458.972 257.609H456.189V260.282H458.972V257.609Z" fill="#F0F0F0"/>
<path d="M458.972 262.089H456.189V264.762H458.972V262.089Z" fill="#F0F0F0"/>
<path d="M458.972 266.569H456.189V269.242H458.972V266.569Z" fill="#F0F0F0"/>
<path d="M458.972 271.049H456.189V273.722H458.972V271.049Z" fill="#F0F0F0"/>
<path d="M458.972 297.928H456.189V300.601H458.972V297.928Z" fill="#F0F0F0"/>
<path d="M458.972 302.408H456.189V305.081H458.972V302.408Z" fill="#F0F0F0"/>
<path d="M458.972 306.888H456.189V309.561H458.972V306.888Z" fill="#F0F0F0"/>
<path d="M458.972 311.368H456.189V314.041H458.972V311.368Z" fill="#F0F0F0"/>
<path d="M458.972 329.288H456.189V331.96H458.972V329.288Z" fill="#F0F0F0"/>
<path d="M454.553 239.69H451.771V242.362H454.553V239.69Z" fill="#F0F0F0"/>
<path d="M454.553 244.17H451.771V246.842H454.553V244.17Z" fill="#F0F0F0"/>
<path d="M454.553 248.65H451.771V251.322H454.553V248.65Z" fill="#F0F0F0"/>
<path d="M454.553 253.129H451.771V255.802H454.553V253.129Z" fill="#F0F0F0"/>
<path d="M454.553 257.609H451.771V260.282H454.553V257.609Z" fill="#F0F0F0"/>
<path d="M454.553 262.089H451.771V264.762H454.553V262.089Z" fill="#F0F0F0"/>
<path d="M454.553 266.569H451.771V269.242H454.553V266.569Z" fill="#F0F0F0"/>
<path d="M454.553 271.049H451.771V273.722H454.553V271.049Z" fill="#F0F0F0"/>
<path d="M454.553 275.529H451.771V278.201H454.553V275.529Z" fill="#F0F0F0"/>
<path d="M454.553 280.009H451.771V282.681H454.553V280.009Z" fill="#F0F0F0"/>
<path d="M454.553 293.449H451.771V296.121H454.553V293.449Z" fill="#F0F0F0"/>
<path d="M454.553 297.928H451.771V300.601H454.553V297.928Z" fill="#F0F0F0"/>
<path d="M454.553 302.408H451.771V305.081H454.553V302.408Z" fill="#F0F0F0"/>
<path d="M454.553 306.888H451.771V309.561H454.553V306.888Z" fill="#F0F0F0"/>
<path d="M454.553 311.368H451.771V314.041H454.553V311.368Z" fill="#F0F0F0"/>
<path d="M454.553 329.288H451.771V331.96H454.553V329.288Z" fill="#F0F0F0"/>
<path d="M450.134 239.69H447.352V242.362H450.134V239.69Z" fill="#F0F0F0"/>
<path d="M450.134 244.17H447.352V246.842H450.134V244.17Z" fill="#F0F0F0"/>
<path d="M450.134 248.65H447.352V251.322H450.134V248.65Z" fill="#F0F0F0"/>
<path d="M450.134 253.129H447.352V255.802H450.134V253.129Z" fill="#F0F0F0"/>
<path d="M450.134 257.609H447.352V260.282H450.134V257.609Z" fill="#F0F0F0"/>
<path d="M450.134 262.089H447.352V264.762H450.134V262.089Z" fill="#F0F0F0"/>
<path d="M450.134 266.569H447.352V269.242H450.134V266.569Z" fill="#F0F0F0"/>
<path d="M450.134 271.049H447.352V273.722H450.134V271.049Z" fill="#F0F0F0"/>
<path d="M450.134 275.529H447.352V278.201H450.134V275.529Z" fill="#F0F0F0"/>
<path d="M450.134 280.009H447.352V282.681H450.134V280.009Z" fill="#F0F0F0"/>
<path d="M450.134 284.489H447.352V287.161H450.134V284.489Z" fill="#F0F0F0"/>
<path d="M450.134 288.969H447.352V291.641H450.134V288.969Z" fill="#F0F0F0"/>
<path d="M450.134 293.449H447.352V296.121H450.134V293.449Z" fill="#F0F0F0"/>
<path d="M450.134 297.928H447.352V300.601H450.134V297.928Z" fill="#F0F0F0"/>
<path d="M450.134 302.408H447.352V305.081H450.134V302.408Z" fill="#F0F0F0"/>
<path d="M450.134 306.888H447.352V309.561H450.134V306.888Z" fill="#F0F0F0"/>
<path d="M450.134 311.368H447.352V314.041H450.134V311.368Z" fill="#F0F0F0"/>
<path d="M450.134 315.848H447.352V318.521H450.134V315.848Z" fill="#F0F0F0"/>
<path d="M445.716 239.69H442.934V242.362H445.716V239.69Z" fill="#F0F0F0"/>
<path d="M445.716 244.17H442.934V246.842H445.716V244.17Z" fill="#F0F0F0"/>
<path d="M445.716 248.65H442.934V251.322H445.716V248.65Z" fill="#F0F0F0"/>
<path d="M445.716 253.129H442.934V255.802H445.716V253.129Z" fill="#F0F0F0"/>
<path d="M445.716 257.609H442.934V260.282H445.716V257.609Z" fill="#F0F0F0"/>
<path d="M445.716 262.089H442.934V264.762H445.716V262.089Z" fill="#F0F0F0"/>
<path d="M445.716 266.569H442.934V269.242H445.716V266.569Z" fill="#F0F0F0"/>
<path d="M445.716 271.049H442.934V273.722H445.716V271.049Z" fill="#F0F0F0"/>
<path d="M445.716 275.529H442.934V278.201H445.716V275.529Z" fill="#F0F0F0"/>
<path d="M445.716 280.009H442.934V282.681H445.716V280.009Z" fill="#F0F0F0"/>
<path d="M445.716 293.449H442.934V296.121H445.716V293.449Z" fill="#F0F0F0"/>
<path d="M445.716 297.928H442.934V300.601H445.716V297.928Z" fill="#F0F0F0"/>
<path d="M445.716 302.408H442.934V305.081H445.716V302.408Z" fill="#F0F0F0"/>
<path d="M445.716 306.888H442.934V309.561H445.716V306.888Z" fill="#F0F0F0"/>
<path d="M441.297 239.69H438.515V242.362H441.297V239.69Z" fill="#F0F0F0"/>
<path d="M441.297 244.17H438.515V246.842H441.297V244.17Z" fill="#F0F0F0"/>
<path d="M441.297 248.65H438.515V251.322H441.297V248.65Z" fill="#F0F0F0"/>
<path d="M441.297 253.129H438.515V255.802H441.297V253.129Z" fill="#F0F0F0"/>
<path d="M441.297 257.609H438.515V260.282H441.297V257.609Z" fill="#F0F0F0"/>
<path d="M441.297 262.089H438.515V264.762H441.297V262.089Z" fill="#F0F0F0"/>
<path d="M441.297 266.569H438.515V269.242H441.297V266.569Z" fill="#F0F0F0"/>
<path d="M441.297 271.049H438.515V273.722H441.297V271.049Z" fill="#F0F0F0"/>
<path d="M441.297 275.529H438.515V278.201H441.297V275.529Z" fill="#F0F0F0"/>
<path d="M441.297 280.009H438.515V282.681H441.297V280.009Z" fill="#F0F0F0"/>
<path d="M441.297 293.449H438.515V296.121H441.297V293.449Z" fill="#F0F0F0"/>
<path d="M441.297 297.928H438.515V300.601H441.297V297.928Z" fill="#F0F0F0"/>
<path d="M441.297 302.408H438.515V305.081H441.297V302.408Z" fill="#F0F0F0"/>
<path d="M391.552 228.058H388.77V230.73H391.552V228.058Z" fill="#F0F0F0"/>
<path d="M391.552 232.538H388.77V235.21H391.552V232.538Z" fill="#F0F0F0"/>
<path d="M391.552 237.018H388.77V239.69H391.552V237.018Z" fill="#F0F0F0"/>
<path d="M391.552 241.497H388.77V244.17H391.552V241.497Z" fill="#F0F0F0"/>
<path d="M391.552 245.977H388.77V248.65H391.552V245.977Z" fill="#F0F0F0"/>
<path d="M391.552 250.457H388.77V253.13H391.552V250.457Z" fill="#F0F0F0"/>
<path d="M391.552 254.937H388.77V257.61H391.552V254.937Z" fill="#F0F0F0"/>
<path d="M391.552 259.417H388.77V262.089H391.552V259.417Z" fill="#F0F0F0"/>
<path d="M391.552 272.856H388.77V275.529H391.552V272.856Z" fill="#F0F0F0"/>
<path d="M391.552 277.336H388.77V280.009H391.552V277.336Z" fill="#F0F0F0"/>
<path d="M387.134 228.058H384.352V230.73H387.134V228.058Z" fill="#F0F0F0"/>
<path d="M387.134 232.538H384.352V235.21H387.134V232.538Z" fill="#F0F0F0"/>
<path d="M387.134 237.018H384.352V239.69H387.134V237.018Z" fill="#F0F0F0"/>
<path d="M387.134 241.497H384.352V244.17H387.134V241.497Z" fill="#F0F0F0"/>
<path d="M387.134 245.977H384.352V248.65H387.134V245.977Z" fill="#F0F0F0"/>
<path d="M387.134 250.457H384.352V253.13H387.134V250.457Z" fill="#F0F0F0"/>
<path d="M387.134 254.937H384.352V257.61H387.134V254.937Z" fill="#F0F0F0"/>
<path d="M387.134 259.417H384.352V262.089H387.134V259.417Z" fill="#F0F0F0"/>
<path d="M387.134 277.336H384.352V280.009H387.134V277.336Z" fill="#F0F0F0"/>
<path d="M382.715 228.058H379.933V230.73H382.715V228.058Z" fill="#F0F0F0"/>
<path d="M382.715 232.538H379.933V235.21H382.715V232.538Z" fill="#F0F0F0"/>
<path d="M382.715 237.018H379.933V239.69H382.715V237.018Z" fill="#F0F0F0"/>
<path d="M382.715 241.497H379.933V244.17H382.715V241.497Z" fill="#F0F0F0"/>
<path d="M382.715 245.977H379.933V248.65H382.715V245.977Z" fill="#F0F0F0"/>
<path d="M382.715 250.457H379.933V253.13H382.715V250.457Z" fill="#F0F0F0"/>
<path d="M382.715 254.937H379.933V257.61H382.715V254.937Z" fill="#F0F0F0"/>
<path d="M382.715 259.417H379.933V262.089H382.715V259.417Z" fill="#F0F0F0"/>
<path d="M378.297 228.058H375.515V230.73H378.297V228.058Z" fill="#F0F0F0"/>
<path d="M378.297 232.538H375.515V235.21H378.297V232.538Z" fill="#F0F0F0"/>
<path d="M378.297 237.018H375.515V239.69H378.297V237.018Z" fill="#F0F0F0"/>
<path d="M378.297 241.497H375.515V244.17H378.297V241.497Z" fill="#F0F0F0"/>
<path d="M378.297 245.977H375.515V248.65H378.297V245.977Z" fill="#F0F0F0"/>
<path d="M378.297 250.457H375.515V253.13H378.297V250.457Z" fill="#F0F0F0"/>
<path d="M378.297 259.417H375.515V262.089H378.297V259.417Z" fill="#F0F0F0"/>
<path d="M378.297 263.896H375.515V266.569H378.297V263.896Z" fill="#F0F0F0"/>
<path d="M378.297 277.336H375.515V280.009H378.297V277.336Z" fill="#F0F0F0"/>
<path d="M378.297 281.816H375.515V284.489H378.297V281.816Z" fill="#F0F0F0"/>
<path d="M378.297 286.296H375.515V288.968H378.297V286.296Z" fill="#F0F0F0"/>
<path d="M378.297 290.776H375.515V293.448H378.297V290.776Z" fill="#F0F0F0"/>
<path d="M378.297 295.256H375.515V297.928H378.297V295.256Z" fill="#F0F0F0"/>
<path d="M378.297 299.736H375.515V302.408H378.297V299.736Z" fill="#F0F0F0"/>
<path d="M378.297 304.216H375.515V306.888H378.297V304.216Z" fill="#F0F0F0"/>
<path d="M373.878 228.058H371.096V230.73H373.878V228.058Z" fill="#F0F0F0"/>
<path d="M373.878 232.538H371.096V235.21H373.878V232.538Z" fill="#F0F0F0"/>
<path d="M373.878 237.018H371.096V239.69H373.878V237.018Z" fill="#F0F0F0"/>
<path d="M373.878 241.497H371.096V244.17H373.878V241.497Z" fill="#F0F0F0"/>
<path d="M373.878 245.977H371.096V248.65H373.878V245.977Z" fill="#F0F0F0"/>
<path d="M373.878 250.457H371.096V253.13H373.878V250.457Z" fill="#F0F0F0"/>
<path d="M373.878 263.896H371.096V266.569H373.878V263.896Z" fill="#F0F0F0"/>
<path d="M373.878 268.376H371.096V271.049H373.878V268.376Z" fill="#F0F0F0"/>
<path d="M373.878 272.856H371.096V275.529H373.878V272.856Z" fill="#F0F0F0"/>
<path d="M373.878 277.336H371.096V280.009H373.878V277.336Z" fill="#F0F0F0"/>
<path d="M373.878 281.816H371.096V284.489H373.878V281.816Z" fill="#F0F0F0"/>
<path d="M373.878 286.296H371.096V288.968H373.878V286.296Z" fill="#F0F0F0"/>
<path d="M373.878 290.776H371.096V293.448H373.878V290.776Z" fill="#F0F0F0"/>
<path d="M373.878 295.256H371.096V297.928H373.878V295.256Z" fill="#F0F0F0"/>
<path d="M373.878 299.736H371.096V302.408H373.878V299.736Z" fill="#F0F0F0"/>
<path d="M373.878 304.216H371.096V306.888H373.878V304.216Z" fill="#F0F0F0"/>
<path d="M373.878 308.696H371.096V311.368H373.878V308.696Z" fill="#F0F0F0"/>
<path d="M373.878 317.655H371.096V320.328H373.878V317.655Z" fill="#F0F0F0"/>
<path d="M369.46 228.058H366.678V230.73H369.46V228.058Z" fill="#F0F0F0"/>
<path d="M369.46 232.538H366.678V235.21H369.46V232.538Z" fill="#F0F0F0"/>
<path d="M369.46 237.018H366.678V239.69H369.46V237.018Z" fill="#F0F0F0"/>
<path d="M369.46 241.497H366.678V244.17H369.46V241.497Z" fill="#F0F0F0"/>
<path d="M369.46 245.977H366.678V248.65H369.46V245.977Z" fill="#F0F0F0"/>
<path d="M369.46 250.457H366.678V253.13H369.46V250.457Z" fill="#F0F0F0"/>
<path d="M369.46 263.896H366.678V266.569H369.46V263.896Z" fill="#F0F0F0"/>
<path d="M369.46 268.376H366.678V271.049H369.46V268.376Z" fill="#F0F0F0"/>
<path d="M369.46 272.856H366.678V275.529H369.46V272.856Z" fill="#F0F0F0"/>
<path d="M369.46 277.336H366.678V280.009H369.46V277.336Z" fill="#F0F0F0"/>
<path d="M369.46 290.776H366.678V293.448H369.46V290.776Z" fill="#F0F0F0"/>
<path d="M369.46 295.256H366.678V297.928H369.46V295.256Z" fill="#F0F0F0"/>
<path d="M369.46 299.736H366.678V302.408H369.46V299.736Z" fill="#F0F0F0"/>
<path d="M369.46 304.216H366.678V306.888H369.46V304.216Z" fill="#F0F0F0"/>
<path d="M369.46 308.696H366.678V311.368H369.46V308.696Z" fill="#F0F0F0"/>
<path d="M369.46 317.655H366.678V320.328H369.46V317.655Z" fill="#F0F0F0"/>
<path d="M369.46 322.135H366.678V324.808H369.46V322.135Z" fill="#F0F0F0"/>
<path d="M329.368 269.713H326.586V272.386H329.368V269.713Z" fill="#F0F0F0"/>
<path d="M329.368 274.193H326.586V276.866H329.368V274.193Z" fill="#F0F0F0"/>
<path d="M329.368 278.673H326.586V281.346H329.368V278.673Z" fill="#F0F0F0"/>
<path d="M329.368 283.152H326.586V285.824H329.368V283.152Z" fill="#F0F0F0"/>
<path d="M329.368 287.633H326.586V290.305H329.368V287.633Z" fill="#F0F0F0"/>
<path d="M329.368 292.112H326.586V294.784H329.368V292.112Z" fill="#F0F0F0"/>
<path d="M329.368 296.593H326.586V299.265H329.368V296.593Z" fill="#F0F0F0"/>
<path d="M329.368 310.031H326.586V312.704H329.368V310.031Z" fill="#F0F0F0"/>
<path d="M329.368 314.511H326.586V317.184H329.368V314.511Z" fill="#F0F0F0"/>
<path d="M329.368 318.991H326.586V321.664H329.368V318.991Z" fill="#F0F0F0"/>
<path d="M324.95 269.713H322.168V272.386H324.95V269.713Z" fill="#F0F0F0"/>
<path d="M324.95 274.193H322.168V276.866H324.95V274.193Z" fill="#F0F0F0"/>
<path d="M324.95 278.673H322.168V281.346H324.95V278.673Z" fill="#F0F0F0"/>
<path d="M324.95 283.152H322.168V285.824H324.95V283.152Z" fill="#F0F0F0"/>
<path d="M324.95 287.633H322.168V290.305H324.95V287.633Z" fill="#F0F0F0"/>
<path d="M324.95 292.112H322.168V294.784H324.95V292.112Z" fill="#F0F0F0"/>
<path d="M324.95 296.593H322.168V299.265H324.95V296.593Z" fill="#F0F0F0"/>
<path d="M320.531 269.713H317.749V272.386H320.531V269.713Z" fill="#F0F0F0"/>
<path d="M320.531 274.193H317.749V276.866H320.531V274.193Z" fill="#F0F0F0"/>
<path d="M320.531 278.673H317.749V281.346H320.531V278.673Z" fill="#F0F0F0"/>
<path d="M320.531 283.152H317.749V285.824H320.531V283.152Z" fill="#F0F0F0"/>
<path d="M320.531 287.633H317.749V290.305H320.531V287.633Z" fill="#F0F0F0"/>
<path d="M320.531 292.112H317.749V294.784H320.531V292.112Z" fill="#F0F0F0"/>
<path d="M320.531 296.593H317.749V299.265H320.531V296.593Z" fill="#F0F0F0"/>
<path d="M316.113 269.713H313.331V272.386H316.113V269.713Z" fill="#F0F0F0"/>
<path d="M316.113 274.193H313.331V276.866H316.113V274.193Z" fill="#F0F0F0"/>
<path d="M316.113 278.673H313.331V281.346H316.113V278.673Z" fill="#F0F0F0"/>
<path d="M316.113 283.152H313.331V285.824H316.113V283.152Z" fill="#F0F0F0"/>
<path d="M316.113 287.633H313.331V290.305H316.113V287.633Z" fill="#F0F0F0"/>
<path d="M316.113 292.112H313.331V294.784H316.113V292.112Z" fill="#F0F0F0"/>
<path d="M316.113 296.593H313.331V299.265H316.113V296.593Z" fill="#F0F0F0"/>
<path d="M316.113 301.071H313.331V303.744H316.113V301.071Z" fill="#F0F0F0"/>
<path d="M316.113 305.551H313.331V308.224H316.113V305.551Z" fill="#F0F0F0"/>
<path d="M316.113 310.031H313.331V312.704H316.113V310.031Z" fill="#F0F0F0"/>
<path d="M316.113 314.511H313.331V317.184H316.113V314.511Z" fill="#F0F0F0"/>
<path d="M311.695 269.713H308.913V272.386H311.695V269.713Z" fill="#F0F0F0"/>
<path d="M311.695 274.193H308.913V276.866H311.695V274.193Z" fill="#F0F0F0"/>
<path d="M311.695 278.673H308.913V281.346H311.695V278.673Z" fill="#F0F0F0"/>
<path d="M311.695 283.152H308.913V285.824H311.695V283.152Z" fill="#F0F0F0"/>
<path d="M311.695 287.633H308.913V290.305H311.695V287.633Z" fill="#F0F0F0"/>
<path d="M311.695 292.112H308.913V294.784H311.695V292.112Z" fill="#F0F0F0"/>
<path d="M311.695 296.593H308.913V299.265H311.695V296.593Z" fill="#F0F0F0"/>
<path d="M311.695 301.071H308.913V303.744H311.695V301.071Z" fill="#F0F0F0"/>
<path d="M311.695 305.551H308.913V308.224H311.695V305.551Z" fill="#F0F0F0"/>
<path d="M311.695 310.031H308.913V312.704H311.695V310.031Z" fill="#F0F0F0"/>
<path d="M311.695 314.511H308.913V317.184H311.695V314.511Z" fill="#F0F0F0"/>
<path d="M311.695 318.991H308.913V321.664H311.695V318.991Z" fill="#F0F0F0"/>
<path d="M311.695 332.431H308.913V335.103H311.695V332.431Z" fill="#F0F0F0"/>
<path d="M311.695 336.911H308.913V339.583H311.695V336.911Z" fill="#F0F0F0"/>
<path d="M307.277 269.713H304.495V272.386H307.277V269.713Z" fill="#F0F0F0"/>
<path d="M307.277 274.193H304.495V276.866H307.277V274.193Z" fill="#F0F0F0"/>
<path d="M307.277 278.673H304.495V281.346H307.277V278.673Z" fill="#F0F0F0"/>
<path d="M307.277 292.112H304.495V294.784H307.277V292.112Z" fill="#F0F0F0"/>
<path d="M307.277 296.593H304.495V299.265H307.277V296.593Z" fill="#F0F0F0"/>
<path d="M307.277 301.071H304.495V303.744H307.277V301.071Z" fill="#F0F0F0"/>
<path d="M307.277 305.551H304.495V308.224H307.277V305.551Z" fill="#F0F0F0"/>
<path d="M307.277 310.031H304.495V312.704H307.277V310.031Z" fill="#F0F0F0"/>
<path d="M307.277 314.511H304.495V317.184H307.277V314.511Z" fill="#F0F0F0"/>
<path d="M307.277 318.991H304.495V321.664H307.277V318.991Z" fill="#F0F0F0"/>
<path d="M307.277 332.431H304.495V335.103H307.277V332.431Z" fill="#F0F0F0"/>
<path d="M307.277 336.911H304.495V339.583H307.277V336.911Z" fill="#F0F0F0"/>
<path d="M307.277 341.391H304.495V344.063H307.277V341.391Z" fill="#F0F0F0"/>
<path d="M260.966 242.834H258.184V245.506H260.966V242.834Z" fill="#F0F0F0"/>
<path d="M260.966 247.314H258.184V249.986H260.966V247.314Z" fill="#F0F0F0"/>
<path d="M260.966 251.794H258.184V254.466H260.966V251.794Z" fill="#F0F0F0"/>
<path d="M260.966 256.274H258.184V258.946H260.966V256.274Z" fill="#F0F0F0"/>
<path d="M260.966 260.753H258.184V263.426H260.966V260.753Z" fill="#F0F0F0"/>
<path d="M260.966 265.233H258.184V267.906H260.966V265.233Z" fill="#F0F0F0"/>
<path d="M260.966 269.713H258.184V272.386H260.966V269.713Z" fill="#F0F0F0"/>
<path d="M260.966 274.193H258.184V276.866H260.966V274.193Z" fill="#F0F0F0"/>
<path d="M260.966 278.673H258.184V281.346H260.966V278.673Z" fill="#F0F0F0"/>
<path d="M260.966 283.152H258.184V285.824H260.966V283.152Z" fill="#F0F0F0"/>
<path d="M260.966 287.633H258.184V290.305H260.966V287.633Z" fill="#F0F0F0"/>
<path d="M260.966 292.112H258.184V294.784H260.966V292.112Z" fill="#F0F0F0"/>
<path d="M260.966 296.593H258.184V299.265H260.966V296.593Z" fill="#F0F0F0"/>
<path d="M260.966 301.071H258.184V303.744H260.966V301.071Z" fill="#F0F0F0"/>
<path d="M260.966 305.551H258.184V308.224H260.966V305.551Z" fill="#F0F0F0"/>
<path d="M260.966 310.031H258.184V312.704H260.966V310.031Z" fill="#F0F0F0"/>
<path d="M260.966 314.511H258.184V317.184H260.966V314.511Z" fill="#F0F0F0"/>
<path d="M260.966 318.991H258.184V321.664H260.966V318.991Z" fill="#F0F0F0"/>
<path d="M260.966 323.471H258.184V326.144H260.966V323.471Z" fill="#F0F0F0"/>
<path d="M260.966 327.951H258.184V330.623H260.966V327.951Z" fill="#F0F0F0"/>
<path d="M260.966 332.431H258.184V335.103H260.966V332.431Z" fill="#F0F0F0"/>
<path d="M260.966 336.911H258.184V339.583H260.966V336.911Z" fill="#F0F0F0"/>
<path d="M260.966 341.391H258.184V344.063H260.966V341.391Z" fill="#F0F0F0"/>
<path d="M256.548 242.834H253.766V245.506H256.548V242.834Z" fill="#F0F0F0"/>
<path d="M256.548 247.314H253.766V249.986H256.548V247.314Z" fill="#F0F0F0"/>
<path d="M256.548 251.794H253.766V254.466H256.548V251.794Z" fill="#F0F0F0"/>
<path d="M256.548 256.274H253.766V258.946H256.548V256.274Z" fill="#F0F0F0"/>
<path d="M256.548 260.753H253.766V263.426H256.548V260.753Z" fill="#F0F0F0"/>
<path d="M256.548 265.233H253.766V267.906H256.548V265.233Z" fill="#F0F0F0"/>
<path d="M256.548 269.713H253.766V272.386H256.548V269.713Z" fill="#F0F0F0"/>
<path d="M256.548 274.193H253.766V276.866H256.548V274.193Z" fill="#F0F0F0"/>
<path d="M256.548 278.673H253.766V281.346H256.548V278.673Z" fill="#F0F0F0"/>
<path d="M256.548 283.152H253.766V285.824H256.548V283.152Z" fill="#F0F0F0"/>
<path d="M256.548 287.633H253.766V290.305H256.548V287.633Z" fill="#F0F0F0"/>
<path d="M256.548 292.112H253.766V294.784H256.548V292.112Z" fill="#F0F0F0"/>
<path d="M256.548 296.593H253.766V299.265H256.548V296.593Z" fill="#F0F0F0"/>
<path d="M256.548 301.071H253.766V303.744H256.548V301.071Z" fill="#F0F0F0"/>
<path d="M256.548 305.551H253.766V308.224H256.548V305.551Z" fill="#F0F0F0"/>
<path d="M256.548 310.031H253.766V312.704H256.548V310.031Z" fill="#F0F0F0"/>
<path d="M256.548 314.511H253.766V317.184H256.548V314.511Z" fill="#F0F0F0"/>
<path d="M256.548 318.991H253.766V321.664H256.548V318.991Z" fill="#F0F0F0"/>
<path d="M256.548 323.471H253.766V326.144H256.548V323.471Z" fill="#F0F0F0"/>
<path d="M252.13 242.834H249.348V245.506H252.13V242.834Z" fill="#F0F0F0"/>
<path d="M252.13 247.314H249.348V249.986H252.13V247.314Z" fill="#F0F0F0"/>
<path d="M252.13 251.794H249.348V254.466H252.13V251.794Z" fill="#F0F0F0"/>
<path d="M252.13 256.274H249.348V258.946H252.13V256.274Z" fill="#F0F0F0"/>
<path d="M252.13 260.753H249.348V263.426H252.13V260.753Z" fill="#F0F0F0"/>
<path d="M252.13 265.233H249.348V267.906H252.13V265.233Z" fill="#F0F0F0"/>
<path d="M252.13 269.713H249.348V272.386H252.13V269.713Z" fill="#F0F0F0"/>
<path d="M252.13 274.193H249.348V276.866H252.13V274.193Z" fill="#F0F0F0"/>
<path d="M252.13 278.673H249.348V281.346H252.13V278.673Z" fill="#F0F0F0"/>
<path d="M252.13 283.152H249.348V285.824H252.13V283.152Z" fill="#F0F0F0"/>
<path d="M252.13 287.633H249.348V290.305H252.13V287.633Z" fill="#F0F0F0"/>
<path d="M252.13 292.112H249.348V294.784H252.13V292.112Z" fill="#F0F0F0"/>
<path d="M252.13 296.593H249.348V299.265H252.13V296.593Z" fill="#F0F0F0"/>
<path d="M252.13 301.071H249.348V303.744H252.13V301.071Z" fill="#F0F0F0"/>
<path d="M252.13 305.551H249.348V308.224H252.13V305.551Z" fill="#F0F0F0"/>
<path d="M252.13 310.031H249.348V312.704H252.13V310.031Z" fill="#F0F0F0"/>
<path d="M252.13 314.511H249.348V317.184H252.13V314.511Z" fill="#F0F0F0"/>
<path d="M252.13 318.991H249.348V321.664H252.13V318.991Z" fill="#F0F0F0"/>
<path d="M252.13 323.471H249.348V326.144H252.13V323.471Z" fill="#F0F0F0"/>
<path d="M247.712 242.834H244.93V245.506H247.712V242.834Z" fill="#F0F0F0"/>
<path d="M247.712 247.314H244.93V249.986H247.712V247.314Z" fill="#F0F0F0"/>
<path d="M247.712 251.794H244.93V254.466H247.712V251.794Z" fill="#F0F0F0"/>
<path d="M247.712 256.274H244.93V258.946H247.712V256.274Z" fill="#F0F0F0"/>
<path d="M247.712 260.753H244.93V263.426H247.712V260.753Z" fill="#F0F0F0"/>
<path d="M247.712 265.233H244.93V267.906H247.712V265.233Z" fill="#F0F0F0"/>
<path d="M247.712 269.713H244.93V272.386H247.712V269.713Z" fill="#F0F0F0"/>
<path d="M247.712 274.193H244.93V276.866H247.712V274.193Z" fill="#F0F0F0"/>
<path d="M247.712 278.673H244.93V281.346H247.712V278.673Z" fill="#F0F0F0"/>
<path d="M247.712 283.152H244.93V285.824H247.712V283.152Z" fill="#F0F0F0"/>
<path d="M247.712 287.633H244.93V290.305H247.712V287.633Z" fill="#F0F0F0"/>
<path d="M247.712 292.112H244.93V294.784H247.712V292.112Z" fill="#F0F0F0"/>
<path d="M247.712 296.593H244.93V299.265H247.712V296.593Z" fill="#F0F0F0"/>
<path d="M247.712 301.071H244.93V303.744H247.712V301.071Z" fill="#F0F0F0"/>
<path d="M247.712 305.551H244.93V308.224H247.712V305.551Z" fill="#F0F0F0"/>
<path d="M243.293 242.834H240.511V245.506H243.293V242.834Z" fill="#F0F0F0"/>
<path d="M243.293 247.314H240.511V249.986H243.293V247.314Z" fill="#F0F0F0"/>
<path d="M243.293 251.794H240.511V254.466H243.293V251.794Z" fill="#F0F0F0"/>
<path d="M243.293 256.274H240.511V258.946H243.293V256.274Z" fill="#F0F0F0"/>
<path d="M243.293 260.753H240.511V263.426H243.293V260.753Z" fill="#F0F0F0"/>
<path d="M243.293 265.233H240.511V267.906H243.293V265.233Z" fill="#F0F0F0"/>
<path d="M243.293 269.713H240.511V272.386H243.293V269.713Z" fill="#F0F0F0"/>
<path d="M243.293 274.193H240.511V276.866H243.293V274.193Z" fill="#F0F0F0"/>
<path d="M243.293 278.673H240.511V281.346H243.293V278.673Z" fill="#F0F0F0"/>
<path d="M243.293 283.152H240.511V285.824H243.293V283.152Z" fill="#F0F0F0"/>
<path d="M243.293 287.633H240.511V290.305H243.293V287.633Z" fill="#F0F0F0"/>
<path d="M243.293 292.112H240.511V294.784H243.293V292.112Z" fill="#F0F0F0"/>
<path d="M243.293 296.593H240.511V299.265H243.293V296.593Z" fill="#F0F0F0"/>
<path d="M238.875 242.834H236.093V245.506H238.875V242.834Z" fill="#F0F0F0"/>
<path d="M238.875 247.314H236.093V249.986H238.875V247.314Z" fill="#F0F0F0"/>
<path d="M238.875 251.794H236.093V254.466H238.875V251.794Z" fill="#F0F0F0"/>
<path d="M238.875 256.274H236.093V258.946H238.875V256.274Z" fill="#F0F0F0"/>
<path d="M238.875 260.753H236.093V263.426H238.875V260.753Z" fill="#F0F0F0"/>
<path d="M238.875 265.233H236.093V267.906H238.875V265.233Z" fill="#F0F0F0"/>
<path d="M238.875 269.713H236.093V272.386H238.875V269.713Z" fill="#F0F0F0"/>
<path d="M238.875 274.193H236.093V276.866H238.875V274.193Z" fill="#F0F0F0"/>
<path d="M238.875 278.673H236.093V281.346H238.875V278.673Z" fill="#F0F0F0"/>
<path d="M238.875 283.152H236.093V285.824H238.875V283.152Z" fill="#F0F0F0"/>
<path d="M238.875 287.633H236.093V290.305H238.875V287.633Z" fill="#F0F0F0"/>
<path d="M238.875 292.112H236.093V294.784H238.875V292.112Z" fill="#F0F0F0"/>
<path d="M496.771 241.497H493.989V244.17H496.771V241.497Z" fill="#F0F0F0"/>
<path d="M496.771 245.977H493.989V248.65H496.771V245.977Z" fill="#F0F0F0"/>
<path d="M496.771 250.457H493.989V253.13H496.771V250.457Z" fill="#F0F0F0"/>
<path d="M496.771 254.937H493.989V257.61H496.771V254.937Z" fill="#F0F0F0"/>
<path d="M496.771 259.417H493.989V262.089H496.771V259.417Z" fill="#F0F0F0"/>
<path d="M496.771 263.896H493.989V266.569H496.771V263.896Z" fill="#F0F0F0"/>
<path d="M496.771 268.376H493.989V271.049H496.771V268.376Z" fill="#F0F0F0"/>
<path d="M496.771 272.856H493.989V275.529H496.771V272.856Z" fill="#F0F0F0"/>
<path d="M496.771 277.336H493.989V280.009H496.771V277.336Z" fill="#F0F0F0"/>
<path d="M496.771 281.816H493.989V284.489H496.771V281.816Z" fill="#F0F0F0"/>
<path d="M496.771 286.296H493.989V288.968H496.771V286.296Z" fill="#F0F0F0"/>
<path d="M496.771 290.776H493.989V293.448H496.771V290.776Z" fill="#F0F0F0"/>
<path d="M496.771 295.256H493.989V297.928H496.771V295.256Z" fill="#F0F0F0"/>
<path d="M496.771 299.736H493.989V302.408H496.771V299.736Z" fill="#F0F0F0"/>
<path d="M496.771 304.216H493.989V306.888H496.771V304.216Z" fill="#F0F0F0"/>
<path d="M496.771 308.696H493.989V311.368H496.771V308.696Z" fill="#F0F0F0"/>
<path d="M496.771 313.175H493.989V315.848H496.771V313.175Z" fill="#F0F0F0"/>
<path d="M496.771 322.135H493.989V324.808H496.771V322.135Z" fill="#F0F0F0"/>
<path d="M496.771 326.615H493.989V329.288H496.771V326.615Z" fill="#F0F0F0"/>
<path d="M496.771 331.095H493.989V333.768H496.771V331.095Z" fill="#F0F0F0"/>
<path d="M496.771 335.575H493.989V338.247H496.771V335.575Z" fill="#F0F0F0"/>
<path d="M496.771 340.055H493.989V342.727H496.771V340.055Z" fill="#F0F0F0"/>
<path d="M492.353 241.497H489.571V244.17H492.353V241.497Z" fill="#F0F0F0"/>
<path d="M492.353 245.977H489.571V248.65H492.353V245.977Z" fill="#F0F0F0"/>
<path d="M492.353 250.457H489.571V253.13H492.353V250.457Z" fill="#F0F0F0"/>
<path d="M492.353 254.937H489.571V257.61H492.353V254.937Z" fill="#F0F0F0"/>
<path d="M492.353 259.417H489.571V262.089H492.353V259.417Z" fill="#F0F0F0"/>
<path d="M492.353 263.896H489.571V266.569H492.353V263.896Z" fill="#F0F0F0"/>
<path d="M492.353 268.376H489.571V271.049H492.353V268.376Z" fill="#F0F0F0"/>
<path d="M492.353 272.856H489.571V275.529H492.353V272.856Z" fill="#F0F0F0"/>
<path d="M492.353 277.336H489.571V280.009H492.353V277.336Z" fill="#F0F0F0"/>
<path d="M492.353 281.816H489.571V284.489H492.353V281.816Z" fill="#F0F0F0"/>
<path d="M492.353 286.296H489.571V288.968H492.353V286.296Z" fill="#F0F0F0"/>
<path d="M492.353 290.776H489.571V293.448H492.353V290.776Z" fill="#F0F0F0"/>
<path d="M492.353 295.256H489.571V297.928H492.353V295.256Z" fill="#F0F0F0"/>
<path d="M492.353 299.736H489.571V302.408H492.353V299.736Z" fill="#F0F0F0"/>
<path d="M492.353 304.216H489.571V306.888H492.353V304.216Z" fill="#F0F0F0"/>
<path d="M492.353 308.696H489.571V311.368H492.353V308.696Z" fill="#F0F0F0"/>
<path d="M492.353 335.575H489.571V338.247H492.353V335.575Z" fill="#F0F0F0"/>
<path d="M492.353 340.055H489.571V342.727H492.353V340.055Z" fill="#F0F0F0"/>
<path d="M487.935 241.497H485.152V244.17H487.935V241.497Z" fill="#F0F0F0"/>
<path d="M487.935 245.977H485.152V248.65H487.935V245.977Z" fill="#F0F0F0"/>
<path d="M487.935 250.457H485.152V253.13H487.935V250.457Z" fill="#F0F0F0"/>
<path d="M487.935 254.937H485.152V257.61H487.935V254.937Z" fill="#F0F0F0"/>
<path d="M487.935 259.417H485.152V262.089H487.935V259.417Z" fill="#F0F0F0"/>
<path d="M487.935 263.896H485.152V266.569H487.935V263.896Z" fill="#F0F0F0"/>
<path d="M487.935 268.376H485.152V271.049H487.935V268.376Z" fill="#F0F0F0"/>
<path d="M487.935 272.856H485.152V275.529H487.935V272.856Z" fill="#F0F0F0"/>
<path d="M487.935 277.336H485.152V280.009H487.935V277.336Z" fill="#F0F0F0"/>
<path d="M487.935 281.816H485.152V284.489H487.935V281.816Z" fill="#F0F0F0"/>
<path d="M487.935 286.296H485.152V288.968H487.935V286.296Z" fill="#F0F0F0"/>
<path d="M487.935 290.776H485.152V293.448H487.935V290.776Z" fill="#F0F0F0"/>
<path d="M487.935 295.256H485.152V297.928H487.935V295.256Z" fill="#F0F0F0"/>
<path d="M487.935 299.736H485.152V302.408H487.935V299.736Z" fill="#F0F0F0"/>
<path d="M487.935 304.216H485.152V306.888H487.935V304.216Z" fill="#F0F0F0"/>
<path d="M487.935 308.696H485.152V311.368H487.935V308.696Z" fill="#F0F0F0"/>
<path d="M487.935 317.655H485.152V320.328H487.935V317.655Z" fill="#F0F0F0"/>
<path d="M487.935 322.135H485.152V324.808H487.935V322.135Z" fill="#F0F0F0"/>
<path d="M487.935 326.615H485.152V329.288H487.935V326.615Z" fill="#F0F0F0"/>
<path d="M487.935 331.095H485.152V333.768H487.935V331.095Z" fill="#F0F0F0"/>
<path d="M487.935 340.055H485.152V342.727H487.935V340.055Z" fill="#F0F0F0"/>
<path d="M410.86 272.856H408.078V275.529H410.86V272.856Z" fill="#F0F0F0"/>
<path d="M410.86 277.336H408.078V280.009H410.86V277.336Z" fill="#F0F0F0"/>
<path d="M410.86 281.816H408.078V284.489H410.86V281.816Z" fill="#F0F0F0"/>
<path d="M410.86 286.296H408.078V288.968H410.86V286.296Z" fill="#F0F0F0"/>
<path d="M410.86 290.776H408.078V293.448H410.86V290.776Z" fill="#F0F0F0"/>
<path d="M410.86 295.256H408.078V297.928H410.86V295.256Z" fill="#F0F0F0"/>
<path d="M410.86 299.736H408.078V302.408H410.86V299.736Z" fill="#F0F0F0"/>
<path d="M410.86 304.216H408.078V306.888H410.86V304.216Z" fill="#F0F0F0"/>
<path d="M410.86 308.696H408.078V311.368H410.86V308.696Z" fill="#F0F0F0"/>
<path d="M410.86 313.175H408.078V315.848H410.86V313.175Z" fill="#F0F0F0"/>
<path d="M410.86 317.655H408.078V320.328H410.86V317.655Z" fill="#F0F0F0"/>
<path d="M410.86 322.135H408.078V324.808H410.86V322.135Z" fill="#F0F0F0"/>
<path d="M410.86 326.615H408.078V329.288H410.86V326.615Z" fill="#F0F0F0"/>
<path d="M410.86 335.575H408.078V338.247H410.86V335.575Z" fill="#F0F0F0"/>
<path d="M410.86 340.055H408.078V342.727H410.86V340.055Z" fill="#F0F0F0"/>
<path d="M410.86 344.535H408.078V347.207H410.86V344.535Z" fill="#F0F0F0"/>
<path d="M410.86 349.015H408.078V351.687H410.86V349.015Z" fill="#F0F0F0"/>
<path d="M410.86 357.975H408.078V360.647H410.86V357.975Z" fill="#F0F0F0"/>
<path d="M410.86 362.454H408.078V365.127H410.86V362.454Z" fill="#F0F0F0"/>
<path d="M410.86 366.934H408.078V369.607H410.86V366.934Z" fill="#F0F0F0"/>
<path d="M406.442 272.856H403.66V275.529H406.442V272.856Z" fill="#F0F0F0"/>
<path d="M406.442 277.336H403.66V280.009H406.442V277.336Z" fill="#F0F0F0"/>
<path d="M406.442 281.816H403.66V284.489H406.442V281.816Z" fill="#F0F0F0"/>
<path d="M406.442 286.296H403.66V288.968H406.442V286.296Z" fill="#F0F0F0"/>
<path d="M406.442 290.776H403.66V293.448H406.442V290.776Z" fill="#F0F0F0"/>
<path d="M406.442 295.256H403.66V297.928H406.442V295.256Z" fill="#F0F0F0"/>
<path d="M406.442 299.736H403.66V302.408H406.442V299.736Z" fill="#F0F0F0"/>
<path d="M406.442 304.216H403.66V306.888H406.442V304.216Z" fill="#F0F0F0"/>
<path d="M406.442 308.696H403.66V311.368H406.442V308.696Z" fill="#F0F0F0"/>
<path d="M406.442 313.175H403.66V315.848H406.442V313.175Z" fill="#F0F0F0"/>
<path d="M406.442 317.655H403.66V320.328H406.442V317.655Z" fill="#F0F0F0"/>
<path d="M406.442 322.135H403.66V324.808H406.442V322.135Z" fill="#F0F0F0"/>
<path d="M406.442 326.615H403.66V329.288H406.442V326.615Z" fill="#F0F0F0"/>
<path d="M406.442 340.055H403.66V342.727H406.442V340.055Z" fill="#F0F0F0"/>
<path d="M406.442 344.535H403.66V347.207H406.442V344.535Z" fill="#F0F0F0"/>
<path d="M406.442 353.495H403.66V356.167H406.442V353.495Z" fill="#F0F0F0"/>
<path d="M406.442 357.975H403.66V360.647H406.442V357.975Z" fill="#F0F0F0"/>
<path d="M406.442 362.454H403.66V365.127H406.442V362.454Z" fill="#F0F0F0"/>
<path d="M406.442 366.934H403.66V369.607H406.442V366.934Z" fill="#F0F0F0"/>
<path d="M402.024 272.856H399.242V275.529H402.024V272.856Z" fill="#F0F0F0"/>
<path d="M402.024 277.336H399.242V280.009H402.024V277.336Z" fill="#F0F0F0"/>
<path d="M402.024 281.816H399.242V284.489H402.024V281.816Z" fill="#F0F0F0"/>
<path d="M402.024 286.296H399.242V288.968H402.024V286.296Z" fill="#F0F0F0"/>
<path d="M402.024 290.776H399.242V293.448H402.024V290.776Z" fill="#F0F0F0"/>
<path d="M402.024 295.256H399.242V297.928H402.024V295.256Z" fill="#F0F0F0"/>
<path d="M402.024 299.736H399.242V302.408H402.024V299.736Z" fill="#F0F0F0"/>
<path d="M402.024 304.216H399.242V306.888H402.024V304.216Z" fill="#F0F0F0"/>
<path d="M402.024 308.696H399.242V311.368H402.024V308.696Z" fill="#F0F0F0"/>
<path d="M402.024 313.175H399.242V315.848H402.024V313.175Z" fill="#F0F0F0"/>
<path d="M402.024 317.655H399.242V320.328H402.024V317.655Z" fill="#F0F0F0"/>
<path d="M402.024 322.135H399.242V324.808H402.024V322.135Z" fill="#F0F0F0"/>
<path d="M402.024 326.615H399.242V329.288H402.024V326.615Z" fill="#F0F0F0"/>
<path d="M402.024 331.095H399.242V333.768H402.024V331.095Z" fill="#F0F0F0"/>
<path d="M402.024 340.055H399.242V342.727H402.024V340.055Z" fill="#F0F0F0"/>
<path d="M402.024 349.015H399.242V351.687H402.024V349.015Z" fill="#F0F0F0"/>
<path d="M402.024 353.495H399.242V356.167H402.024V353.495Z" fill="#F0F0F0"/>
<path d="M402.024 357.975H399.242V360.647H402.024V357.975Z" fill="#F0F0F0"/>
<path d="M402.024 362.454H399.242V365.127H402.024V362.454Z" fill="#F0F0F0"/>
<path d="M402.024 366.934H399.242V369.607H402.024V366.934Z" fill="#F0F0F0"/>
<path d="M428.86 298.4H426.078V301.072H428.86V298.4Z" fill="#F0F0F0"/>
<path d="M428.86 302.88H426.078V305.552H428.86V302.88Z" fill="#F0F0F0"/>
<path d="M428.86 307.36H426.078V310.032H428.86V307.36Z" fill="#F0F0F0"/>
<path d="M428.86 311.84H426.078V314.512H428.86V311.84Z" fill="#F0F0F0"/>
<path d="M428.86 316.32H426.078V318.992H428.86V316.32Z" fill="#F0F0F0"/>
<path d="M428.86 320.799H426.078V323.472H428.86V320.799Z" fill="#F0F0F0"/>
<path d="M428.86 334.239H426.078V336.912H428.86V334.239Z" fill="#F0F0F0"/>
<path d="M428.86 338.719H426.078V341.392H428.86V338.719Z" fill="#F0F0F0"/>
<path d="M428.86 343.198H426.078V345.87H428.86V343.198Z" fill="#F0F0F0"/>
<path d="M428.86 347.679H426.078V350.351H428.86V347.679Z" fill="#F0F0F0"/>
<path d="M428.86 352.158H426.078V354.83H428.86V352.158Z" fill="#F0F0F0"/>
<path d="M428.86 356.638H426.078V359.31H428.86V356.638Z" fill="#F0F0F0"/>
<path d="M428.86 361.118H426.078V363.79H428.86V361.118Z" fill="#F0F0F0"/>
<path d="M424.442 298.4H421.66V301.072H424.442V298.4Z" fill="#F0F0F0"/>
<path d="M424.442 302.88H421.66V305.552H424.442V302.88Z" fill="#F0F0F0"/>
<path d="M424.442 307.36H421.66V310.032H424.442V307.36Z" fill="#F0F0F0"/>
<path d="M424.442 311.84H421.66V314.512H424.442V311.84Z" fill="#F0F0F0"/>
<path d="M424.442 316.32H421.66V318.992H424.442V316.32Z" fill="#F0F0F0"/>
<path d="M424.442 320.799H421.66V323.472H424.442V320.799Z" fill="#F0F0F0"/>
<path d="M424.442 334.239H421.66V336.912H424.442V334.239Z" fill="#F0F0F0"/>
<path d="M424.442 338.719H421.66V341.392H424.442V338.719Z" fill="#F0F0F0"/>
<path d="M424.442 343.198H421.66V345.87H424.442V343.198Z" fill="#F0F0F0"/>
<path d="M424.442 347.679H421.66V350.351H424.442V347.679Z" fill="#F0F0F0"/>
<path d="M424.442 352.158H421.66V354.83H424.442V352.158Z" fill="#F0F0F0"/>
<path d="M424.442 356.638H421.66V359.31H424.442V356.638Z" fill="#F0F0F0"/>
<path d="M424.442 365.597H421.66V368.27H424.442V365.597Z" fill="#F0F0F0"/>
<path d="M277.658 278.673H274.876V281.346H277.658V278.673Z" fill="#F0F0F0"/>
<path d="M277.658 283.152H274.876V285.824H277.658V283.152Z" fill="#F0F0F0"/>
<path d="M277.658 287.633H274.876V290.305H277.658V287.633Z" fill="#F0F0F0"/>
<path d="M277.658 292.112H274.876V294.784H277.658V292.112Z" fill="#F0F0F0"/>
<path d="M277.658 296.593H274.876V299.265H277.658V296.593Z" fill="#F0F0F0"/>
<path d="M277.658 301.071H274.876V303.744H277.658V301.071Z" fill="#F0F0F0"/>
<path d="M277.658 305.551H274.876V308.224H277.658V305.551Z" fill="#F0F0F0"/>
<path d="M277.658 310.031H274.876V312.704H277.658V310.031Z" fill="#F0F0F0"/>
<path d="M277.658 314.511H274.876V317.184H277.658V314.511Z" fill="#F0F0F0"/>
<path d="M277.658 318.991H274.876V321.664H277.658V318.991Z" fill="#F0F0F0"/>
<path d="M277.658 323.471H274.876V326.144H277.658V323.471Z" fill="#F0F0F0"/>
<path d="M277.658 332.431H274.876V335.103H277.658V332.431Z" fill="#F0F0F0"/>
<path d="M277.658 336.911H274.876V339.583H277.658V336.911Z" fill="#F0F0F0"/>
<path d="M277.658 341.391H274.876V344.063H277.658V341.391Z" fill="#F0F0F0"/>
<path d="M277.658 345.871H274.876V348.543H277.658V345.871Z" fill="#F0F0F0"/>
<path d="M277.658 350.35H274.876V353.023H277.658V350.35Z" fill="#F0F0F0"/>
<path d="M277.658 354.83H274.876V357.503H277.658V354.83Z" fill="#F0F0F0"/>
<path d="M277.658 359.31H274.876V361.983H277.658V359.31Z" fill="#F0F0F0"/>
<path d="M277.658 363.79H274.876V366.463H277.658V363.79Z" fill="#F0F0F0"/>
<path d="M273.24 278.673H270.458V281.346H273.24V278.673Z" fill="#F0F0F0"/>
<path d="M273.24 283.152H270.458V285.824H273.24V283.152Z" fill="#F0F0F0"/>
<path d="M273.24 287.633H270.458V290.305H273.24V287.633Z" fill="#F0F0F0"/>
<path d="M273.24 292.112H270.458V294.784H273.24V292.112Z" fill="#F0F0F0"/>
<path d="M273.24 296.593H270.458V299.265H273.24V296.593Z" fill="#F0F0F0"/>
<path d="M273.24 301.071H270.458V303.744H273.24V301.071Z" fill="#F0F0F0"/>
<path d="M273.24 305.551H270.458V308.224H273.24V305.551Z" fill="#F0F0F0"/>
<path d="M273.24 310.031H270.458V312.704H273.24V310.031Z" fill="#F0F0F0"/>
<path d="M273.24 314.511H270.458V317.184H273.24V314.511Z" fill="#F0F0F0"/>
<path d="M273.24 318.991H270.458V321.664H273.24V318.991Z" fill="#F0F0F0"/>
<path d="M273.24 323.471H270.458V326.144H273.24V323.471Z" fill="#F0F0F0"/>
<path d="M273.24 327.951H270.458V330.623H273.24V327.951Z" fill="#F0F0F0"/>
<path d="M273.24 332.431H270.458V335.103H273.24V332.431Z" fill="#F0F0F0"/>
<path d="M273.24 336.911H270.458V339.583H273.24V336.911Z" fill="#F0F0F0"/>
<path d="M273.24 341.391H270.458V344.063H273.24V341.391Z" fill="#F0F0F0"/>
<path d="M273.24 345.871H270.458V348.543H273.24V345.871Z" fill="#F0F0F0"/>
<path d="M273.24 350.35H270.458V353.023H273.24V350.35Z" fill="#F0F0F0"/>
<path d="M273.24 354.83H270.458V357.503H273.24V354.83Z" fill="#F0F0F0"/>
<path d="M273.24 359.31H270.458V361.983H273.24V359.31Z" fill="#F0F0F0"/>
<path d="M273.24 363.79H270.458V366.463H273.24V363.79Z" fill="#F0F0F0"/>
<path d="M299.421 296.121H296.639V298.794H299.421V296.121Z" fill="#F0F0F0"/>
<path d="M299.421 300.6H296.639V303.272H299.421V300.6Z" fill="#F0F0F0"/>
<path d="M299.421 305.081H296.639V307.753H299.421V305.081Z" fill="#F0F0F0"/>
<path d="M299.421 309.56H296.639V312.232H299.421V309.56Z" fill="#F0F0F0"/>
<path d="M299.421 314.041H296.639V316.713H299.421V314.041Z" fill="#F0F0F0"/>
<path d="M299.421 318.52H296.639V321.192H299.421V318.52Z" fill="#F0F0F0"/>
<path d="M299.421 323H296.639V325.672H299.421V323Z" fill="#F0F0F0"/>
<path d="M299.421 327.479H296.639V330.151H299.421V327.479Z" fill="#F0F0F0"/>
<path d="M299.421 331.959H296.639V334.631H299.421V331.959Z" fill="#F0F0F0"/>
<path d="M299.421 336.439H296.639V339.111H299.421V336.439Z" fill="#F0F0F0"/>
<path d="M295.004 296.121H292.222V298.794H295.004V296.121Z" fill="#F0F0F0"/>
<path d="M295.004 300.6H292.222V303.272H295.004V300.6Z" fill="#F0F0F0"/>
<path d="M295.004 305.081H292.222V307.753H295.004V305.081Z" fill="#F0F0F0"/>
<path d="M295.004 309.56H292.222V312.232H295.004V309.56Z" fill="#F0F0F0"/>
<path d="M295.004 314.041H292.222V316.713H295.004V314.041Z" fill="#F0F0F0"/>
<path d="M295.004 318.52H292.222V321.192H295.004V318.52Z" fill="#F0F0F0"/>
<path d="M295.004 323H292.222V325.672H295.004V323Z" fill="#F0F0F0"/>
<path d="M295.004 327.479H292.222V330.151H295.004V327.479Z" fill="#F0F0F0"/>
<path d="M295.004 331.959H292.222V334.631H295.004V331.959Z" fill="#F0F0F0"/>
<path d="M321.293 126.109H316.624V375.966H321.293V126.109Z" fill="#E0E0E0"/>
<path d="M409.126 126.109H404.457V375.966H409.126V126.109Z" fill="#E0E0E0"/>
<path d="M496.958 126.109H492.289V375.966H496.958V126.109Z" fill="#E0E0E0"/>
<path d="M198.656 409.806H160.054V356.388C160.054 353.78 162.254 351.665 164.971 351.665H193.74C196.455 351.665 198.657 353.779 198.657 356.388L198.656 409.806Z" fill="#F0F0F0"/>
<path d="M198.657 359.524H160.055V363.689H198.657V359.524Z" fill="#E6E6E6"/>
<path d="M191.62 402.764H182.004C180.541 402.764 179.354 403.903 179.354 405.309V409.807H194.27V405.309C194.27 403.902 193.084 402.764 191.62 402.764Z" fill="#E0E0E0"/>
<path d="M194.32 409.806H183.623C182.675 409.806 181.907 409.068 181.907 408.158C181.907 407.248 182.675 406.51 183.623 406.51H194.32C195.268 406.51 196.036 407.248 196.036 408.158C196.036 409.068 195.268 409.806 194.32 409.806Z" fill="#E6E6E6"/>
<path d="M365.714 114.35C379.842 111.146 388.591 97.5461 385.255 83.9747C381.919 70.4033 367.761 61.9993 353.633 65.2039C339.504 68.4085 330.755 82.0081 334.091 95.5795C337.427 109.151 351.585 117.555 365.714 114.35Z" fill="#E0E0E0"/>
<path d="M363.273 110.985C375.457 109.085 383.731 98.0574 381.754 86.3534C379.776 74.6494 368.296 66.7012 356.112 68.6007C343.927 70.5002 335.653 81.528 337.63 93.232C339.608 104.936 351.088 112.884 363.273 110.985Z" fill="#F0F0F0"/>
<path d="M360.741 75.0703V90.0783L371.095 84.4503" fill="#F0F0F0"/>
<path d="M360.741 75.0703V90.0783L371.095 84.4503" stroke="#E0E0E0" stroke-width="2" stroke-miterlimit="10" stroke-linecap="round" stroke-linejoin="round"/>
<path d="M108.175 336.223C106.167 333.046 102.859 335.81 102.859 335.81C103.331 329.721 97.4997 325.556 97.4997 325.556C97.4997 325.556 104.276 325.556 105.221 319.345C106.167 313.134 102.859 316.023 99.7551 315.981C96.6516 315.938 93.4073 324.648 97.4997 329.547C101.592 334.445 100.496 342.807 91.0436 350.848C88.738 352.809 87.17 355.421 86.1109 358.247C86.8241 350.858 87.2269 340.449 84.9637 333.499C81.1191 321.697 88.4445 318.519 90.5716 312.618C92.6987 306.717 84.9637 301.723 84.9637 301.723C84.9637 301.723 92.2255 298.546 88.6811 294.914C85.1367 291.282 77.8112 291.776 77.8112 296.523C77.8112 301.269 82.773 303.085 82.773 303.085C82.773 303.085 88.4434 308.759 88.4434 311.71C88.4434 314.661 82.773 321.016 82.773 321.016C82.773 321.016 85.3721 315.577 80.1738 315.346C74.9755 315.115 73.3216 321.697 75.4476 324.648C77.5735 327.599 81.1179 325.101 81.1179 325.101C81.1179 325.101 81.5309 331.456 82.7417 335.315C83.2741 337.012 83.0241 343.67 82.5766 350.597C81.5297 348.096 80.0488 345.805 77.9742 344.038C68.5228 335.996 67.4257 327.636 71.5181 322.738C75.6105 317.84 72.3663 309.13 69.2627 309.173C66.1591 309.214 62.8513 306.325 63.7965 312.537C64.7418 318.748 71.5181 318.748 71.5181 318.748C71.5181 318.748 65.687 322.912 66.1591 329.001C66.1591 329.001 62.8513 326.238 60.8425 329.416C57.2568 335.089 65.5676 338.609 66.9648 335.816C66.9648 335.816 84.5898 347.801 80.3367 365.051L81.3244 366.452C81.1972 367.844 81.1179 368.683 81.1179 368.683L82.4962 368.112L84.0642 370.337C83.9827 374.648 84.4659 377.835 84.4659 377.835L88.68 371.86C84.4269 354.61 102.051 342.625 102.051 342.625C103.45 345.415 111.761 341.896 108.175 336.223Z" fill="#E0E0E0"/>
<path opacity="0.2" d="M108.175 336.223C106.167 333.046 102.859 335.81 102.859 335.81C103.331 329.721 97.4997 325.556 97.4997 325.556C97.4997 325.556 104.276 325.556 105.221 319.345C106.167 313.134 102.859 316.023 99.7551 315.981C96.6516 315.938 93.4073 324.648 97.4997 329.547C101.592 334.445 100.496 342.807 91.0436 350.848C88.738 352.809 87.17 355.421 86.1109 358.247C86.8241 350.858 87.2269 340.449 84.9637 333.499C81.1191 321.697 88.4445 318.519 90.5716 312.618C92.6987 306.717 84.9637 301.723 84.9637 301.723C84.9637 301.723 92.2255 298.546 88.6811 294.914C85.1367 291.282 77.8112 291.776 77.8112 296.523C77.8112 301.269 82.773 303.085 82.773 303.085C82.773 303.085 88.4434 308.759 88.4434 311.71C88.4434 314.661 82.773 321.016 82.773 321.016C82.773 321.016 85.3721 315.577 80.1738 315.346C74.9755 315.115 73.3216 321.697 75.4476 324.648C77.5735 327.599 81.1179 325.101 81.1179 325.101C81.1179 325.101 81.5309 331.456 82.7417 335.315C83.2741 337.012 83.0241 343.67 82.5766 350.597C81.5297 348.096 80.0488 345.805 77.9742 344.038C68.5228 335.996 67.4257 327.636 71.5181 322.738C75.6105 317.84 72.3663 309.13 69.2627 309.173C66.1591 309.214 62.8513 306.325 63.7965 312.537C64.7418 318.748 71.5181 318.748 71.5181 318.748C71.5181 318.748 65.687 322.912 66.1591 329.001C66.1591 329.001 62.8513 326.238 60.8425 329.416C57.2568 335.089 65.5676 338.609 66.9648 335.816C66.9648 335.816 84.5898 347.801 80.3367 365.051L81.3244 366.452C81.1972 367.844 81.1179 368.683 81.1179 368.683L82.4962 368.112L84.0642 370.337C83.9827 374.648 84.4659 377.835 84.4659 377.835L88.68 371.86C84.4269 354.61 102.051 342.625 102.051 342.625C103.45 345.415 111.761 341.896 108.175 336.223Z" fill="#E0E0E0"/>
<path d="M104.728 409.805H64.3566L60.002 367.348H109.084L104.728 409.805Z" fill="#E6E6E6"/>
<path d="M111.238 362.663H57.8457V372.032H111.238V362.663Z" fill="#F0F0F0"/>
<path d="M279 458.345C398.504 458.345 495.38 452.911 495.38 446.207C495.38 439.503 398.504 434.069 279 434.069C159.497 434.069 62.6201 439.503 62.6201 446.207C62.6201 452.911 159.497 458.345 279 458.345Z" fill="#F5F5F5"/>
<path d="M458.058 412.416C458.228 411.319 462.134 385.432 454.309 376.495C452.577 374.517 450.392 373.482 447.813 373.421C432.018 373.066 429.858 385.252 429.839 385.376L431.701 385.652C431.774 385.215 433.647 374.903 447.767 375.231C449.811 375.278 451.479 376.073 452.868 377.659C460.152 385.979 456.236 411.888 456.194 412.148L458.058 412.416Z" fill="#407BFF"/>
<path d="M459.014 411.236L460.898 411.179C460.89 410.941 460.272 387.327 472.385 382.449C484.256 377.672 489.596 387.494 489.817 387.915L491.501 387.101C491.44 386.983 485.173 375.335 471.656 380.78C458.35 386.139 458.981 410.215 459.014 411.236Z" fill="#407BFF"/>
<path d="M458.959 413.092C458.96 412.715 459.073 375.368 466.653 364.444C473.931 353.957 485.673 358.895 486.168 359.111L486.947 357.462C486.811 357.403 473.262 351.658 465.085 363.44C457.189 374.817 457.075 411.532 457.074 413.09L458.959 413.092Z" fill="#407BFF"/>
<path d="M445.554 374.319C445.554 374.319 452.449 376.761 450.399 382.526C448.349 388.291 426.541 397.781 426.541 397.781C426.541 397.781 417.408 389.74 425.796 376.662C434.184 363.585 445.367 370.193 445.554 374.319Z" fill="#407BFF"/>
<path d="M466.995 362.478C466.995 362.478 462.099 361.973 462.493 359.109C462.887 356.245 481.526 348.871 492.523 360.794C492.523 360.794 485.482 372.413 475.303 372.565C465.124 372.715 466.995 362.478 466.995 362.478Z" fill="#407BFF"/>
<path d="M472.021 381.615C472.021 381.615 468.642 378.994 472.289 377.715C475.936 376.436 493.829 376.799 494.015 393.825C494.015 393.825 473.176 397.151 470.596 390.667C468.016 384.182 472.021 381.615 472.021 381.615Z" fill="#407BFF"/>
<path opacity="0.2" d="M445.554 374.319C445.554 374.319 452.449 376.761 450.399 382.526C448.349 388.291 426.541 397.781 426.541 397.781C426.541 397.781 417.408 389.74 425.796 376.662C434.184 363.585 445.367 370.193 445.554 374.319Z" fill="black"/>
<path opacity="0.2" d="M466.995 362.478C466.995 362.478 462.099 361.973 462.493 359.109C462.887 356.245 481.526 348.871 492.523 360.794C492.523 360.794 485.482 372.413 475.303 372.565C465.124 372.715 466.995 362.478 466.995 362.478Z" fill="black"/>
<path opacity="0.2" d="M472.021 381.615C472.021 381.615 468.642 378.994 472.289 377.715C475.936 376.436 493.829 376.799 494.015 393.825C494.015 393.825 473.176 397.151 470.596 390.667C468.016 384.182 472.021 381.615 472.021 381.615Z" fill="black"/>
<path d="M441.847 447.101H474.186L477.675 413.091H438.358L441.847 447.101Z" fill="#407BFF"/>
<path opacity="0.5" d="M441.847 447.101H474.186L477.675 413.091H438.358L441.847 447.101Z" fill="white"/>
<path d="M436.633 416.843H479.402V409.338H436.633V416.843Z" fill="#407BFF"/>
<path opacity="0.2" d="M436.633 416.843H479.402V409.338H436.633V416.843Z" fill="white"/>
<path d="M405.247 422.722L373.091 419.686V376.279H360.348V419.674L328.063 422.722C324.858 423.024 322.415 425.613 322.415 428.707V433.346H365.474H367.835H410.894V428.707C410.895 425.613 408.451 423.024 405.247 422.722Z" fill="#263238"/>
<path opacity="0.2" d="M405.247 422.722L373.091 419.686V376.279H360.348V419.674L328.063 422.722C324.858 423.024 322.415 425.613 322.415 428.707V433.346H365.474H367.835H410.894V428.707C410.895 425.613 408.451 423.024 405.247 422.722Z" fill="white"/>
<path d="M325.817 447.101C330.419 447.101 334.149 443.518 334.149 439.098C334.149 434.678 330.419 431.094 325.817 431.094C321.216 431.094 317.485 434.678 317.485 439.098C317.485 443.518 321.216 447.101 325.817 447.101Z" fill="#263238"/>
<path d="M407.491 447.101C412.093 447.101 415.823 443.518 415.823 439.098C415.823 434.678 412.093 431.094 407.491 431.094C402.89 431.094 399.159 434.678 399.159 439.098C399.159 443.518 402.89 447.101 407.491 447.101Z" fill="#263238"/>
<path d="M370.673 385.608H362.765C360.217 385.608 358.152 383.625 358.152 381.177V346.945H375.285V381.177C375.285 383.625 373.221 385.608 370.673 385.608Z" fill="#263238"/>
<path opacity="0.3" d="M370.673 385.608H362.765C360.217 385.608 358.152 383.625 358.152 381.177V346.945H375.285V381.177C375.285 383.625 373.221 385.608 370.673 385.608Z" fill="white"/>
<path d="M397.185 279.095C397.185 279.095 399.614 336.98 382.837 346.945H401.991C401.991 346.945 416.831 327.225 412.637 279.095H397.185Z" fill="#263238"/>
<path opacity="0.3" d="M397.185 279.095C397.185 279.095 399.614 336.98 382.837 346.945H401.991C401.991 346.945 416.831 327.225 412.637 279.095H397.185Z" fill="white"/>
<path d="M328.252 338.851H402.936C406.018 338.851 408.516 341.251 408.516 344.211V351.381H322.672V344.211C322.672 341.25 325.171 338.851 328.252 338.851Z" fill="#263238"/>
<path d="M321.338 345.117H409.849C411.089 345.117 412.093 346.081 412.093 347.272V349.226C412.093 350.417 411.089 351.381 409.849 351.381H321.338C320.098 351.381 319.094 350.417 319.094 349.226V347.272C319.094 346.081 320.098 345.117 321.338 345.117Z" fill="#263238"/>
<path opacity="0.6" d="M321.338 345.117H409.849C411.089 345.117 412.093 346.081 412.093 347.272V349.226C412.093 350.417 411.089 351.381 409.849 351.381H321.338C320.098 351.381 319.094 350.417 319.094 349.226V347.272C319.094 346.081 320.098 345.117 321.338 345.117Z" fill="white"/>
<path d="M417.333 290.856H386.65C377.66 290.856 370.374 283.857 370.374 275.222V263.696C370.374 255.061 377.66 248.062 386.65 248.062H417.334C426.324 248.062 433.61 255.061 433.61 263.696V275.222C433.61 283.857 426.322 290.856 417.333 290.856Z" fill="#263238"/>
<path d="M293.564 200.763L287.442 185.251C287.442 185.251 290.068 182.916 288.267 180.548C286.466 178.18 275.165 171.516 273.105 172.687C271.045 173.858 266.471 178.276 268.944 180.726C271.416 183.177 282.364 187.268 282.364 187.268L287.78 207.619L293.564 200.763Z" fill="#E4897B"/>
<path d="M336.344 230.256C336.344 230.256 308.477 224.753 305.455 223.44C302.434 222.127 291.215 190.568 291.215 190.568L282.617 194.428C282.617 194.428 289.539 226.096 296.615 233.626C303.693 241.157 333.88 247.526 333.88 247.526L336.344 230.256Z" fill="#407BFF"/>
<path opacity="0.2" d="M333.876 247.521C333.876 247.521 333.702 247.486 333.364 247.408C331.84 247.079 327.081 246 321.419 244.41C312.229 241.847 300.656 237.928 296.61 233.63C289.544 226.095 282.613 194.425 282.613 194.425L291.209 190.57C291.209 190.57 302.427 222.129 305.459 223.441C308.48 224.75 336.344 230.254 336.344 230.254L333.876 247.521Z" fill="black"/>
<path d="M291.351 189.949L293.127 193.239L282.079 196.893L282.505 192.872L291.351 189.949Z" fill="#407BFF"/>
<path opacity="0.2" d="M334.089 247.089C332.542 246.875 327.711 246.154 321.937 244.99C325.229 239.531 334.87 236.723 334.87 236.723L334.089 247.089Z" fill="black"/>
<path d="M375.627 208.41C375.627 208.41 377.266 223.236 371.547 226.877C365.827 230.517 337.703 226.253 334.511 220.289C331.32 214.326 343.326 198.129 343.326 198.129L375.627 208.41Z" fill="#263238"/>
<path d="M261.806 403.495L269.144 405.193L272.859 395.462L276.231 386.61L267.872 383.185L264.658 393.928L261.806 403.495Z" fill="#E4897B"/>
<path opacity="0.2" d="M264.658 393.928L272.859 395.462L276.231 386.61L267.872 383.185L264.658 393.928Z" fill="black"/>
<path d="M265.396 388.791L275.573 392.425C275.573 392.425 302.726 327.215 308.306 326.99C313.886 326.765 370.701 351.849 384.941 337.935C399.182 324.031 378.591 290.51 378.591 290.51C378.591 290.51 344.341 285.814 341.763 293.243C341.261 294.68 340.714 297.499 340.313 299.911C339.922 302.184 339.654 304.092 339.654 304.092C339.654 304.092 339.643 304.092 339.632 304.081C338.572 303.824 304.188 295.301 290.639 304.092C276.879 313.032 265.396 388.791 265.396 388.791Z" fill="#407BFF"/>
<path opacity="0.6" d="M265.396 388.791L275.573 392.425C275.573 392.425 302.726 327.215 308.306 326.99C313.886 326.765 370.701 351.849 384.941 337.935C399.182 324.031 378.591 290.51 378.591 290.51C378.591 290.51 344.341 285.814 341.763 293.243C341.261 294.68 340.714 297.499 340.313 299.911C339.922 302.184 339.654 304.092 339.654 304.092C339.654 304.092 339.643 304.092 339.632 304.081C338.572 303.824 304.188 295.301 290.639 304.092C276.879 313.032 265.396 388.791 265.396 388.791Z" fill="white"/>
<path d="M323.938 431.313L331.25 429.513L329.843 419.437L328.537 410.194L319.494 410.974L321.842 421.743L323.938 431.313Z" fill="#E4897B"/>
<path opacity="0.2" d="M321.901 421.959L329.894 419.629L328.563 410.291L319.508 411.022L321.901 421.959Z" fill="black"/>
<path d="M279.777 388.808L264.953 383.968L264.319 389.802L275.564 393.62L279.777 388.808Z" fill="#407BFF"/>
<path d="M360.345 341.281C360.345 341.281 358.026 341.333 322.101 339.725C322.101 339.725 327.47 382.868 330.399 415.165L319.656 416.924C319.656 416.924 293.988 347.766 294.267 336.778C294.546 325.79 307.659 322.574 307.659 322.574C307.659 322.574 333.253 336.777 360.345 341.281Z" fill="#407BFF"/>
<path opacity="0.6" d="M360.345 341.281C360.345 341.281 358.026 341.333 322.101 339.725C322.101 339.725 327.47 382.868 330.399 415.165L319.656 416.924C319.656 416.924 293.988 347.766 294.267 336.778C294.546 325.79 307.659 322.574 307.659 322.574C307.659 322.574 333.253 336.777 360.345 341.281Z" fill="white"/>
<path opacity="0.1" d="M360.345 341.281C360.345 341.281 358.026 341.333 322.101 339.725C322.101 339.725 327.47 382.868 330.399 415.165L319.656 416.924C319.656 416.924 293.988 347.766 294.267 336.778C294.546 325.79 307.659 322.574 307.659 322.574C307.659 322.574 333.253 336.777 360.345 341.281Z" fill="black"/>
<path d="M331.97 412.035L317.205 413.648L320.053 419.207L332.005 417.736L331.97 412.035Z" fill="#407BFF"/>
<path opacity="0.1" d="M339.654 304.092L359.686 308.101C359.686 308.101 348.616 302.227 340.313 299.911C339.922 302.184 339.654 304.092 339.654 304.092Z" fill="black"/>
<path d="M377.765 285.395L378.588 290.513L341.761 293.241L340.787 287.188L377.765 285.395Z" fill="#263238"/>
<path opacity="0.2" d="M377.765 285.395L378.588 290.513L341.761 293.241L340.787 287.188L377.765 285.395Z" fill="black"/>
<path d="M366.127 293.961L367.946 293.781L366.993 284.879L365.174 285.058L366.127 293.961Z" fill="#407BFF"/>
<path d="M349.819 293.064L357.888 292.566L357.495 286.689L349.426 287.187L349.819 293.064Z" fill="white"/>
<path d="M343.568 294.921L345.388 294.742L344.435 285.84L342.615 286.02L343.568 294.921Z" fill="#407BFF"/>
<path opacity="0.6" d="M366.127 293.961L367.946 293.781L366.993 284.879L365.174 285.058L366.127 293.961Z" fill="white"/>
<path opacity="0.6" d="M343.568 294.921L345.388 294.742L344.435 285.84L342.615 286.02L343.568 294.921Z" fill="white"/>
<path d="M335.675 229.767C335.675 229.767 345.077 232.6 356.893 232.017C368.71 231.434 382.837 236.947 382.837 236.947L377.765 285.395L340.787 287.189C340.787 287.189 328.363 246.731 335.675 229.767Z" fill="#407BFF"/>
<path d="M341.615 202.408C341.615 202.408 343.694 178.88 364.167 187.429C389.866 198.16 369.43 226.817 356.877 220.933C344.323 215.05 341.615 202.408 341.615 202.408Z" fill="#263238"/>
<path opacity="0.2" d="M347.355 233.331L347.944 246.625L352.536 240.371C352.536 240.371 350.898 255.075 351.856 263.08C351.856 263.08 352.733 248.724 354.814 240.371L359.687 246.625L366.69 233.413C366.69 233.413 355.359 229.503 347.355 233.331Z" fill="black"/>
<path d="M353.696 235.804L364.283 232.931C357.76 228.619 361.048 218.976 361.048 218.976L350.561 222.518C351.122 224.189 351.474 225.61 351.686 226.822C352.782 233.106 349.828 233.608 349.828 233.608L353.696 235.804Z" fill="#E4897B"/>
<path opacity="0.2" d="M350.562 222.518C351.123 224.189 351.475 225.61 351.687 226.822C356.707 224.889 361.05 218.976 361.05 218.976L350.562 222.518Z" fill="black"/>
<path d="M357.405 192.37C348.117 190.395 344.026 194.536 341.228 203.586C337.73 214.896 338.501 223.623 350.68 223.638C367.221 223.657 372.83 195.649 357.405 192.37Z" fill="#E4897B"/>
<path d="M347.347 204.364C347.347 204.364 345.523 206.421 343.791 207.49C343.791 207.49 344.307 208.873 346.007 209.019L347.347 204.364Z" fill="#DE5753"/>
<path d="M353.2 204.843C353.014 205.572 353.273 206.26 353.778 206.379C354.284 206.498 354.846 206.005 355.033 205.276C355.219 204.547 354.96 203.859 354.454 203.739C353.949 203.619 353.388 204.113 353.2 204.843Z" fill="#263238"/>
<path d="M354.656 203.823L353.164 202.812C353.164 202.812 353.645 204.34 354.656 203.823Z" fill="#263238"/>
<path d="M343.804 202.461C343.617 203.19 343.876 203.878 344.382 203.998C344.888 204.118 345.45 203.624 345.636 202.895C345.822 202.166 345.564 201.478 345.058 201.359C344.551 201.238 343.99 201.732 343.804 202.461Z" fill="#263238"/>
<path d="M345.26 201.443L343.769 200.431C343.769 200.431 344.248 201.959 345.26 201.443Z" fill="#263238"/>
<path d="M354.714 198.702C354.714 198.702 357.399 198.931 358.431 200.907" stroke="#263238" stroke-width="0.7247" stroke-miterlimit="10" stroke-linecap="round" stroke-linejoin="round"/>
<path d="M348.049 196.889C348.049 196.889 346.542 195.956 344.179 196.835" stroke="#263238" stroke-width="0.7247" stroke-miterlimit="10" stroke-linecap="round" stroke-linejoin="round"/>
<path d="M364.093 209.565C364.093 209.565 361.439 201.312 363.401 195.792C363.401 195.792 346.658 184.656 341.615 202.41C341.615 202.41 343.488 186.092 359.537 189.131C375.561 192.166 370.348 214.594 360.562 219.526C360.562 219.526 365.723 214.72 364.093 209.565Z" fill="#263238"/>
<path d="M362.142 211.126C362.535 209.703 364.638 207.599 367.352 208.483C370.161 209.396 370.225 215.364 362.751 215.206C361.679 215.184 361.322 214.096 362.142 211.126Z" fill="#E4897B"/>
<path d="M344.346 212.41C344.675 213.59 344.827 215.725 344.827 215.725C345.031 215.747 345.235 215.768 345.439 215.78C348.213 216.006 349.576 215.231 350.248 214.304C350.613 213.795 350.766 213.233 350.826 212.769C350.902 212.234 350.829 211.835 350.829 211.835C349.284 212.559 346.682 212.539 345.292 212.472C344.711 212.45 344.346 212.41 344.346 212.41Z" fill="#263238"/>
<path d="M345.292 212.472L345.461 213.446C348.073 213.653 349.941 213.462 350.826 212.769C350.902 212.234 350.828 211.835 350.828 211.835C349.284 212.559 346.681 212.538 345.292 212.472Z" fill="white"/>
<path d="M345.439 215.779C348.213 216.005 349.576 215.23 350.248 214.303C349.301 214.261 348.152 214.311 347.117 214.637C346.324 214.885 345.802 215.322 345.439 215.779Z" fill="#DE5753"/>
<path d="M357.442 193.083C357.442 193.083 357.802 208.56 367.468 210.418C377.135 212.275 366.568 190.53 366.568 190.53C366.568 190.53 352.175 181.499 342.58 187.864C332.986 194.228 341.615 202.41 341.615 202.41C341.615 202.41 343.642 190.914 357.442 193.083Z" fill="#263238"/>
<path d="M357.776 192.061C357.776 192.061 354.33 201.844 361.134 206.98" stroke="#263238" stroke-width="0.5" stroke-miterlimit="10" stroke-linecap="round" stroke-linejoin="round"/>
<path d="M370.291 213.601C369.061 216.748 365.904 218.519 363.238 217.559C360.573 216.597 359.409 213.268 360.639 210.121C361.868 206.974 365.026 205.203 367.692 206.164C370.357 207.124 371.521 210.454 370.291 213.601Z" fill="#407BFF"/>
<path opacity="0.4" d="M370.291 213.601C369.061 216.748 365.904 218.519 363.238 217.559C360.573 216.597 359.409 213.268 360.639 210.121C361.868 206.974 365.026 205.203 367.692 206.164C370.357 207.124 371.521 210.454 370.291 213.601Z" fill="black"/>
<path d="M367.213 208.441C367.213 208.441 371.215 191.214 362.233 186.698C362.233 186.698 364.105 186.941 365.266 187.265C366.426 187.59 373.601 194.576 369.975 210.059L367.213 208.441Z" fill="#407BFF"/>
<path opacity="0.2" d="M367.213 208.441C367.213 208.441 371.215 191.214 362.233 186.698C362.233 186.698 364.105 186.941 365.266 187.265C366.426 187.59 373.601 194.576 369.975 210.059L367.213 208.441Z" fill="black"/>
<path d="M350.367 218.3C350.145 218.272 349.922 218.24 349.696 218.203L349.877 217.146C357.965 218.411 363.982 214.3 364.042 214.257L364.702 215.122C364.451 215.299 358.599 219.34 350.367 218.3Z" fill="#407BFF"/>
<g opacity="0.2">
<path d="M350.367 218.3C350.145 218.272 349.922 218.24 349.696 218.203L349.877 217.146C357.965 218.411 363.982 214.3 364.042 214.257L364.702 215.122C364.451 215.299 358.599 219.34 350.367 218.3Z" fill="black"/>
</g>
<path d="M369.914 213.17C369.101 215.251 367.014 216.422 365.251 215.787C363.489 215.151 362.72 212.951 363.533 210.87C364.346 208.789 366.433 207.618 368.195 208.253C369.958 208.889 370.727 211.09 369.914 213.17Z" fill="#407BFF"/>
<path d="M349.369 218.651L348.473 218.538C347.808 218.454 347.34 217.868 347.427 217.229C347.514 216.59 348.125 216.141 348.789 216.224L349.685 216.338C350.35 216.422 350.818 217.008 350.731 217.647C350.645 218.286 350.034 218.735 349.369 218.651Z" fill="#407BFF"/>
<path opacity="0.4" d="M349.369 218.651L348.473 218.538C347.808 218.454 347.34 217.868 347.427 217.229C347.514 216.59 348.125 216.141 348.789 216.224L349.685 216.338C350.35 216.422 350.818 217.008 350.731 217.647C350.645 218.286 350.034 218.735 349.369 218.651Z" fill="black"/>
<path d="M361.445 229.245L354.813 235.501L357.465 243.167L366.69 233.413L361.445 229.245Z" fill="#407BFF"/>
<path d="M351.856 230.553L352.929 235.368L349.495 242.178L347.355 233.331L351.856 230.553Z" fill="#407BFF"/>
<path d="M360.025 234.675L363.877 221.136C363.877 221.136 362.011 217.764 362.414 217.057C362.817 216.352 364.821 207.261 366.25 206.271C367.679 205.281 373.554 206.971 374.148 207.893C374.743 208.815 368.518 221.135 368.518 221.135L366.249 235.803L360.025 234.675Z" fill="#E4897B"/>
<path d="M382.837 236.947C393.433 247.366 372.195 270.969 360.025 269.964C347.855 268.958 360.328 226.159 360.328 226.159L368.121 227.39C368.121 227.39 365.387 245.912 366.249 247.366C367.112 248.819 379.276 233.445 382.837 236.947Z" fill="#407BFF"/>
<path opacity="0.2" d="M382.837 236.947C393.433 247.366 372.195 270.969 360.025 269.964C347.855 268.958 360.328 226.159 360.328 226.159L368.121 227.39C368.121 227.39 365.387 245.912 366.249 247.366C367.112 248.819 379.276 233.445 382.837 236.947Z" fill="black"/>
<path d="M359.687 224.79L358.533 228.324L369.392 229.245V226.158L359.687 224.79Z" fill="#407BFF"/>
<path opacity="0.6" d="M343.235 262.451H338.836C338.348 262.451 337.953 262.071 337.953 261.603V253.628C337.953 253.16 338.348 252.78 338.836 252.78H343.235C343.723 252.78 344.118 253.16 344.118 253.628V261.603C344.118 262.071 343.723 262.451 343.235 262.451Z" fill="white"/>
<path opacity="0.2" d="M343.324 253.416H338.32V259.99H343.324V253.416Z" fill="black"/>
<path d="M341.485 250.447H340.381V254.321H341.485V250.447Z" fill="#263238"/>
<path d="M249.655 417.188C250.771 416.695 251.97 416.402 253.197 416.324C253.197 416.324 257.436 413.927 261.636 404.618L266.36 404.591C267.995 404.609 269.446 405.606 269.989 407.088C270.068 407.289 270.112 407.501 270.123 407.716C270.075 408.812 269.955 409.905 269.761 410.986C269.335 414.38 266.999 421.662 266.999 421.662L266.198 421.466L267.654 414.695C268.138 412.395 265.621 414.617 264.454 416.937C263.287 419.257 261.497 421.592 256.279 420.446C250.199 419.079 247.749 418.238 249.655 417.188Z" fill="#407BFF"/>
<path d="M262.491 402.178C262.491 402.178 256.593 414.035 253.196 416.323C253.196 416.323 257.75 418.931 262.491 413.126C268.623 405.619 270.123 407.716 270.123 407.716C270.123 407.716 269.863 405.147 269.384 403.89C268.464 401.467 262.491 402.178 262.491 402.178Z" fill="#E4897B"/>
<path d="M314.629 445.438C315.591 444.705 316.685 444.147 317.857 443.792C317.857 443.792 321.382 440.497 323.165 430.497L327.748 429.395C329.341 429.04 330.995 429.679 331.889 430.994C332.014 431.172 332.11 431.368 332.174 431.574C332.398 432.65 332.55 433.739 332.628 434.834C333.053 438.228 332.581 445.835 332.581 445.835L331.755 445.827L331.497 438.918C331.399 436.573 329.503 439.305 328.942 441.825C328.38 444.344 327.218 447.021 321.866 447.096C315.626 447.151 313.038 446.892 314.629 445.438Z" fill="#407BFF"/>
<path d="M323.394 427.932C323.394 427.932 320.591 440.795 317.856 443.791C317.856 443.791 322.924 445.287 326.097 438.568C330.199 429.878 332.175 431.573 332.175 431.573C332.175 431.573 331.289 429.137 330.513 428.024C329.02 425.881 323.394 427.932 323.394 427.932Z" fill="#E4897B"/>
<path d="M427.16 195.339H388.194C385.072 195.339 382.541 192.908 382.541 189.909V173.893C382.541 170.894 385.072 168.463 388.194 168.463H427.16C430.281 168.463 432.812 170.894 432.812 173.893V189.909C432.812 192.908 430.281 195.339 427.16 195.339Z" fill="#407BFF"/>
<path d="M396.014 192.275L384.274 207.603L403.214 193.303L396.014 192.275Z" fill="#407BFF"/>
<path d="M396.452 181.901C396.452 182.774 395.716 183.482 394.806 183.482C393.897 183.482 393.16 182.773 393.16 181.901C393.16 181.027 393.897 180.319 394.806 180.319C395.715 180.319 396.452 181.027 396.452 181.901Z" fill="white"/>
<path d="M405.033 181.901C405.033 182.774 404.296 183.482 403.387 183.482C402.479 183.482 401.741 182.773 401.741 181.901C401.741 181.027 402.479 180.319 403.387 180.319C404.296 180.319 405.033 181.027 405.033 181.901Z" fill="white"/>
<path d="M413.614 181.901C413.614 182.774 412.878 183.482 411.968 183.482C411.059 183.482 410.322 182.773 410.322 181.901C410.322 181.027 411.06 180.319 411.968 180.319C412.878 180.319 413.614 181.027 413.614 181.901Z" fill="white"/>
<path d="M422.196 181.901C422.196 182.774 421.458 183.482 420.549 183.482C419.64 183.482 418.903 182.773 418.903 181.901C418.903 181.027 419.64 180.319 420.549 180.319C421.459 180.319 422.196 181.027 422.196 181.901Z" fill="white"/>
<path d="M270.553 174.206L242.765 159.829C242.014 159.44 241.732 158.54 242.137 157.818L251 142.011C251.405 141.29 252.341 141.02 253.093 141.408L280.882 155.784C281.633 156.173 281.914 157.073 281.51 157.795L272.648 173.602C272.242 174.324 271.304 174.594 270.553 174.206Z" fill="#407BFF"/>
<path opacity="0.7" d="M270.553 174.206L242.765 159.829C242.014 159.44 241.732 158.54 242.137 157.818L251 142.011C251.405 141.29 252.341 141.02 253.093 141.408L280.882 155.784C281.633 156.173 281.914 157.073 281.51 157.795L272.648 173.602C272.242 174.324 271.304 174.594 270.553 174.206Z" fill="white"/>
<path opacity="0.2" d="M250.267 143.318L258.96 158.912C259.638 160.127 261.008 160.83 262.435 160.694L280.53 158.976L262.111 161.58C260.459 161.814 258.844 160.978 258.138 159.525L250.267 143.318Z" fill="black"/>
<path d="M229.162 140.413C229.458 134.448 234.054 122.431 239.646 118.756C245.238 115.08 241.559 120.17 241.559 120.17C241.559 120.17 246.856 115.223 249.653 115.365C252.45 115.506 249.653 118.616 249.653 118.616C249.653 118.616 255.393 115.218 258.042 115.361C260.691 115.506 258.042 118.474 258.042 118.474C258.042 118.474 262.752 115.223 264.664 116.779C266.577 118.334 240.235 135.014 237.292 141.8C234.348 148.584 228.863 146.449 229.162 140.413Z" fill="#407BFF"/>
<path opacity="0.4" d="M229.162 140.413C229.458 134.448 234.054 122.431 239.646 118.756C245.238 115.08 241.559 120.17 241.559 120.17C241.559 120.17 246.856 115.223 249.653 115.365C252.45 115.506 249.653 118.616 249.653 118.616C249.653 118.616 255.393 115.218 258.042 115.361C260.691 115.506 258.042 118.474 258.042 118.474C258.042 118.474 262.752 115.223 264.664 116.779C266.577 118.334 240.235 135.014 237.292 141.8C234.348 148.584 228.863 146.449 229.162 140.413Z" fill="white"/>
<path d="M251.787 139.533L255.305 141.697C255.559 141.853 255.427 142.23 255.127 142.207L251.431 141.931L251.749 144.656C251.783 144.952 251.4 145.115 251.195 144.892L249.063 142.573L251.787 139.533Z" fill="#407BFF"/>
<path opacity="0.3" d="M251.787 139.533L255.305 141.697C255.559 141.853 255.427 142.23 255.127 142.207L251.431 141.931L251.749 144.656C251.783 144.952 251.4 145.115 251.195 144.892L249.063 142.573L251.787 139.533Z" fill="white"/>
<path d="M202.413 126.109C202.413 126.109 207.27 122.856 214.628 124.976C214.628 124.976 216.744 134.306 222.529 137.415C225.706 139.123 233.49 138.976 239.646 137.062C246.957 134.788 250.536 134.788 251.861 137.415C253.115 139.904 251.714 142.787 246.121 144.06C240.529 145.332 236.114 154.662 225.96 154.803C215.805 154.945 210.461 145.165 213.01 136.568C213.01 136.568 209.918 130.159 202.413 126.109Z" fill="#407BFF"/>
<path opacity="0.5" d="M202.413 126.109C202.413 126.109 207.27 122.856 214.628 124.976C214.628 124.976 216.744 134.306 222.529 137.415C225.706 139.123 233.49 138.976 239.646 137.062C246.957 134.788 250.536 134.788 251.861 137.415C253.115 139.904 251.714 142.787 246.121 144.06C240.529 145.332 236.114 154.662 225.96 154.803C215.805 154.945 210.461 145.165 213.01 136.568C213.01 136.568 209.918 130.159 202.413 126.109Z" fill="white"/>
<path d="M249.065 139.184C249.065 139.447 248.842 139.661 248.568 139.661C248.293 139.661 248.071 139.447 248.071 139.184C248.071 138.92 248.293 138.707 248.568 138.707C248.842 138.707 249.065 138.92 249.065 139.184Z" fill="#263238"/>
<path d="M223.603 147.035C217.606 148.605 204.289 148.115 198.923 144.14C193.557 140.165 199.732 141.956 199.732 141.956C199.732 141.956 193.198 138.642 192.475 136.044C191.751 133.445 195.694 135.04 195.694 135.04C195.694 135.04 190.557 130.845 189.882 128.381C189.207 125.916 192.964 127.42 192.964 127.42C192.964 127.42 188.292 124.121 189.24 121.893C190.189 119.666 214.838 138.585 222.466 139.179C230.094 139.775 229.673 145.445 223.603 147.035Z" fill="#407BFF"/>
<path opacity="0.4" d="M223.603 147.035C217.606 148.605 204.289 148.115 198.923 144.14C193.557 140.165 199.732 141.956 199.732 141.956C199.732 141.956 193.198 138.642 192.475 136.044C191.751 133.445 195.694 135.04 195.694 135.04C195.694 135.04 190.557 130.845 189.882 128.381C189.207 125.916 192.964 127.42 192.964 127.42C192.964 127.42 188.292 124.121 189.24 121.893C190.189 119.666 214.838 138.585 222.466 139.179C230.094 139.775 229.673 145.445 223.603 147.035Z" fill="white"/>
<path d="M184.322 120.556C183.273 120.197 182.212 119.863 181.142 119.551" stroke="#407BFF" stroke-width="0.75" stroke-linecap="round" stroke-linejoin="round"/>
<path d="M174.617 117.953C170.705 117.166 166.729 116.655 162.779 116.392C151.929 115.666 134.919 114.634 128.272 125.02C122.215 134.485 132.635 150.634 136.334 159.421C140.863 170.183 146.249 183.49 140.897 194.884C129.898 218.295 82.8136 206.139 66.9307 184.576" stroke="#407BFF" stroke-width="0.75" stroke-linecap="round" stroke-linejoin="round" stroke-dasharray="6.03 6.03"/>
<path d="M65.1255 181.854C64.5663 180.908 64.0686 179.947 63.6367 178.974" stroke="#407BFF" stroke-width="0.75" stroke-linecap="round" stroke-linejoin="round"/>
<path d="M200.666 266.973H158.305V275.319H200.666V266.973Z" fill="white"/>
<path opacity="0.1" d="M200.666 266.973H158.305V275.319H200.666V266.973Z" fill="black"/>
<path opacity="0.1" d="M176.146 266.973H158.305V275.319H176.146V266.973Z" fill="black"/>
<path opacity="0.1" d="M158.305 268.175H196.013L158.305 269.2V268.175Z" fill="black"/>
<path opacity="0.1" d="M200.666 269.624L167.979 270.401H200.666V269.624Z" fill="black"/>
<path opacity="0.1" d="M160.031 271.957L176.146 271.32L199.839 271.957L176.146 272.31L160.031 271.957Z" fill="black"/>
<path opacity="0.1" d="M158.305 273.724H186.227L158.305 274.359V273.724Z" fill="black"/>
<path opacity="0.1" d="M200.605 274.359L181.958 274.692H200.666L200.605 274.359Z" fill="black"/>
<path d="M194.769 258.628H152.408V266.973H194.769V258.628Z" fill="white"/>
<path opacity="0.1" d="M194.769 258.628H152.408V266.973H194.769V258.628Z" fill="black"/>
<path opacity="0.1" d="M170.25 258.628H152.408V266.973H170.25V258.628Z" fill="black"/>
<path opacity="0.1" d="M152.408 259.83H190.117L152.408 260.854V259.83Z" fill="black"/>
<path opacity="0.1" d="M194.771 261.279L162.082 262.056H194.771V261.279Z" fill="black"/>
<path opacity="0.1" d="M154.136 263.612L170.25 262.975L193.943 263.612L170.25 263.965L154.136 263.612Z" fill="black"/>
<path opacity="0.1" d="M152.408 265.378H180.331L152.408 266.014V265.378Z" fill="black"/>
<path opacity="0.1" d="M194.709 266.014L176.062 266.346H194.77L194.709 266.014Z" fill="black"/>
<path d="M199.606 250.282H157.245V258.628H199.606V250.282Z" fill="white"/>
<path opacity="0.1" d="M199.606 250.282H157.245V258.628H199.606V250.282Z" fill="black"/>
<path opacity="0.1" d="M175.087 250.282H157.245V258.628H175.087V250.282Z" fill="black"/>
<path opacity="0.1" d="M157.245 251.484H194.954L157.245 252.509V251.484Z" fill="black"/>
<path opacity="0.1" d="M199.608 252.933L166.919 253.71H199.608V252.933Z" fill="black"/>
<path opacity="0.1" d="M158.973 255.265L175.087 254.629L198.78 255.265L175.087 255.619L158.973 255.265Z" fill="black"/>
<path opacity="0.1" d="M157.245 257.033H185.167L157.245 257.668V257.033Z" fill="black"/>
<path opacity="0.1" d="M199.546 257.668L180.899 258.001H199.607L199.546 257.668Z" fill="black"/>
<path d="M227.826 275.144L228.928 271.146H274.184L295.024 273.145L295.816 275.144H227.826Z" fill="#263238"/>
<path opacity="0.4" d="M274.184 271.146V275.144H227.826L228.928 271.146H274.184Z" fill="black"/>
<path d="M265.092 252.005C265.293 254.117 263.686 255.832 261.499 255.832H192.173C189.974 255.832 188.033 254.117 187.832 252.005L183.714 209.371C183.669 208.932 183.703 208.514 183.803 208.128C184.194 206.627 185.566 205.544 187.307 205.544H256.633C258.832 205.544 260.774 207.26 260.974 209.371L265.092 252.005Z" fill="#263238"/>
<path opacity="0.4" d="M261.254 255.832H192.174C189.975 255.832 188.034 254.117 187.833 252.005L183.715 209.371C183.67 208.932 183.704 208.514 183.804 208.128H252.884C255.072 208.128 257.014 209.843 257.226 211.955L261.344 254.588C261.388 255.028 261.354 255.446 261.254 255.832Z" fill="black"/>
<path d="M213.626 229.684H227.967L224.144 269.126L246.823 272.396V275.144H199.059V272.396L208.844 269.126L213.626 229.684Z" fill="#263238"/>
<path opacity="0.1" d="M227.968 229.684L217.342 274.517L208.844 274.274L213.626 229.684H227.968Z" fill="white"/>
<path d="M227.901 447.102H221.064L208.78 282.821H217.851L227.901 447.102Z" fill="#263238"/>
<path opacity="0.4" d="M227.906 447.101H221.065L209.38 290.981L208.777 283.085H217.85L218.341 290.981L227.906 447.101Z" fill="white"/>
<path opacity="0.2" d="M218.341 290.589H209.38L208.777 283.085H217.85L218.341 290.589Z" fill="black"/>
<path d="M278.076 447.102H271.239L270.123 282.821H279.193L278.076 447.102Z" fill="#263238"/>
<path opacity="0.5" d="M279.197 283.085L279.019 309.591L278.081 447.101H271.24L270.303 309.591L270.124 283.085H279.197Z" fill="white"/>
<path opacity="0.2" d="M279.197 283.085L279.019 309.885H270.303L270.124 283.085H279.197Z" fill="black"/>
<path d="M350.661 447.102H343.825L331.541 282.821H340.612L350.661 447.102Z" fill="#263238"/>
<path opacity="0.5" d="M350.666 447.101H343.825L332.141 290.981L331.538 283.085H340.611L341.102 290.981L350.666 447.101Z" fill="white"/>
<path opacity="0.2" d="M341.102 290.589H332.141L331.538 283.085H340.611L341.102 290.589Z" fill="black"/>
<path d="M149.691 447.102H142.854L152.904 282.821H161.974L149.691 447.102Z" fill="#263238"/>
<path opacity="0.5" d="M161.973 283.085L161.37 290.981L149.685 447.101H142.855L152.408 290.981L152.899 283.085H161.973Z" fill="white"/>
<path opacity="0.2" d="M152.9 283.085H161.973L161.371 290.589H152.409L152.9 283.085Z" fill="black"/>
<path d="M345.388 286.935H148.128C146.795 286.935 145.715 285.898 145.715 284.618V278.707H347.801V284.616C347.801 285.898 346.721 286.935 345.388 286.935Z" fill="#407BFF"/>
<path opacity="0.6" d="M345.388 286.935H148.128C146.795 286.935 145.715 285.898 145.715 284.618V278.707H347.801V284.616C347.801 285.898 346.721 286.935 345.388 286.935Z" fill="white"/>
<path opacity="0.2" d="M347.801 278.707H145.715V282.821H347.801V278.707Z" fill="black"/>
<path d="M352.039 279.779H141.477C140.145 279.779 139.064 278.742 139.064 277.462C139.064 276.182 140.145 275.144 141.477 275.144H352.04C353.372 275.144 354.452 276.182 354.452 277.462C354.451 278.742 353.371 279.779 352.039 279.779Z" fill="#407BFF"/>
<path opacity="0.6" d="M352.039 279.779H141.477C140.145 279.779 139.064 278.742 139.064 277.462C139.064 276.182 140.145 275.144 141.477 275.144H352.04C353.372 275.144 354.452 276.182 354.452 277.462C354.451 278.742 353.371 279.779 352.039 279.779Z" fill="white"/>
<path d="M302.219 268.003L304.812 264.274C305.329 263.53 306.198 263.084 307.13 263.084H310.415C310.688 263.084 310.961 263.123 311.223 263.199L322.927 266.607C323.592 266.801 324.159 267.226 324.514 267.8L326.194 270.512L302.219 268.003Z" fill="#407BFF"/>
<path opacity="0.2" d="M326.194 270.513L309.153 268.733L302.223 268.004L304.812 264.274C305.325 263.534 306.196 263.084 307.133 263.084H310.414C310.693 263.084 310.961 263.127 311.229 263.202L311.485 263.277L322.924 266.611C323.594 266.804 324.163 267.222 324.52 267.801L326.194 270.513Z" fill="black"/>
<path opacity="0.2" d="M326.194 270.513L309.152 268.734L311.485 263.277L322.924 266.611C323.593 266.804 324.163 267.222 324.52 267.801L326.194 270.513Z" fill="black"/>
<path d="M334.295 274.789V275.143H319.441H298.114L299.453 270.115C299.978 268.229 301.764 266.91 303.795 266.91H319.843C320.378 266.91 320.903 266.996 321.405 267.178L323.414 267.896L331.382 270.748C333.135 271.381 334.295 272.989 334.295 274.789Z" fill="#407BFF"/>
<path opacity="0.2" d="M334.295 274.79V275.143H319.441L320.234 269.708C320.446 268.272 321.997 267.393 323.414 267.897L331.383 270.748C333.136 271.382 334.295 272.99 334.295 274.79Z" fill="black"/>
<path d="M321.755 271.449L326.48 257.826C326.684 257.237 327.386 256.964 327.96 257.248C328.397 257.465 328.619 257.945 328.494 258.402L324.515 272.946C324.515 272.946 321.865 273.975 321.755 271.449Z" fill="#263238"/>
<path opacity="0.2" d="M302.219 274.012H300.122L300.526 272.033H302.623L302.219 274.012Z" fill="black"/>
<path opacity="0.2" d="M305.346 273.935H303.249L303.653 271.956H305.751L305.346 273.935Z" fill="black"/>
</svg>
